<?xml version="1.0" encoding="UTF-8"?>
<svg version="1.1" xmlns="http://www.w3.org/2000/svg" width="200" height="200">
<path d="M0 0 C3.85516055 1.67615676 5.45650024 3.14125059 7 7 C7.265625 9.47265625 7.265625 9.47265625 7.25 12.0625 C7.25773437 13.34833984 7.25773437 13.34833984 7.265625 14.66015625 C7 17 7 17 5 20 C5.20376178 21.90584196 5.20376178 21.90584196 6 24 C6.185625 25.03125 6.37125 26.0625 6.5625 27.125 C7.64756352 30.09064543 7.64756352 30.09064543 9.8046875 30.72265625 C11.92085557 31.2118892 11.92085557 31.2118892 14.02734375 31.48046875 C16.52197694 32.13747115 17.45113667 32.94880261 19 35 C20.27369143 39.30475459 20.45954946 42.92771793 18.6875 47.0625 C18.130625 47.701875 17.57375 48.34125 17 49 C16.34 49 15.68 49 15 49 C15 49.66 15 50.32 15 51 C15.66 51 16.32 51 17 51 C20.98525863 57.40487994 19.58022067 66.98694088 18.25 74.125 C17.32290481 77.68769438 16.00487144 79.74634642 13 82 C10.51458657 83.24270671 9.23584621 82.95365685 6.5 82.625 C5.7059375 82.53476563 4.911875 82.44453125 4.09375 82.3515625 C2 82 2 82 0 81 C-0.17015625 81.80824219 -0.3403125 82.61648437 -0.515625 83.44921875 C-2.95791969 94.21869907 -2.95791969 94.21869907 -7 98 C-10.20860529 99.60430264 -13.5190457 99.48105318 -17 99 C-21.04661847 96.6248109 -22.68204043 94.44968254 -24 90 C-23.828125 86.8359375 -23.828125 86.8359375 -23.25 83.375 C-23.05148438 82.14394531 -22.85296875 80.91289063 -22.6484375 79.64453125 C-22.07931537 76.44579063 -21.48412833 73.25380276 -20.875 70.0625 C-20.09552951 65.94592147 -19.81414575 62.18172062 -20 58 C-20.886875 57.95875 -21.77375 57.9175 -22.6875 57.875 C-27.19164237 56.68522654 -28.5427637 54.90266941 -31 51 C-32.34453796 44.27731019 -29.34056322 37.74690113 -26 32 C-24.17093711 29.90770403 -22.18373846 27.99418905 -20.1875 26.0625 C-17.14107795 23.0916618 -15.14388239 20.92315782 -14.46484375 16.56640625 C-14.56891225 14.33020253 -14.72374504 12.09558292 -14.9375 9.8671875 C-15.00669069 6.69306459 -14.6372906 5.63959509 -12.625 3.25 C-8.54137593 -0.2502492 -5.27115529 -0.56657331 0 0 Z M-6 7 C-6.66 7.66 -7.32 8.32 -8 9 C-7.67673447 12.59679066 -7.67673447 12.59679066 -7 16 C-5.15274948 16.69159401 -5.15274948 16.69159401 -3 17 C-2.01 16.34 -1.02 15.68 0 15 C0.41666667 12 0.41666667 12 0 9 C-0.66 8.34 -1.32 7.68 -2 7 C-3.32 7 -4.64 7 -6 7 Z M-10.25 26 C-11.17233003 26.99477892 -12.08832527 27.99544688 -13 29 C-13.57363281 29.58136719 -14.14726562 30.16273437 -14.73828125 30.76171875 C-19.26939277 35.54509772 -22.43661978 40.52806572 -24 47 C-23.67 47.99 -23.34 48.98 -23 50 C-21.68 50 -20.36 50 -19 50 C-18.65066406 49.14535156 -18.30132812 48.29070312 -17.94140625 47.41015625 C-17.48636719 46.30542969 -17.03132813 45.20070313 -16.5625 44.0625 C-15.88380859 42.40927734 -15.88380859 42.40927734 -15.19140625 40.72265625 C-14 38 -14 38 -13 37 C-12.41088726 67.73960084 -12.41088726 67.73960084 -15.34375 80.65234375 C-16.03511135 84.17910971 -16.10987599 87.41529568 -16 91 C-14.68 91.33 -13.36 91.66 -12 92 C-8.64742287 87.30639202 -7.5584449 82.27024385 -6.25 76.75 C-6.01667969 75.84636719 -5.78335938 74.94273438 -5.54296875 74.01171875 C-4.08483365 67.94343197 -3.96925202 63.15934767 -5 57 C-2.36 57.99 0.28 58.98 3 60 C3.06058594 60.83144531 3.12117188 61.66289063 3.18359375 62.51953125 C3.26738281 63.60621094 3.35117187 64.69289062 3.4375 65.8125 C3.51871094 66.89144531 3.59992187 67.97039062 3.68359375 69.08203125 C3.90212461 72.05989905 3.90212461 72.05989905 5 75 C6.485 75.495 6.485 75.495 8 76 C11.39507032 74.2356301 11.39507032 74.2356301 11.828125 70.296875 C13.04111427 61.96701194 13.04111427 61.96701194 10.12109375 54.54296875 C7.17359855 52.59847352 4.59333481 51 1 51 C1.33 48.69 1.66 46.38 2 44 C5.3 43.67 8.6 43.34 12 43 C12 41.68 12 40.36 12 39 C10.96593327 37.74050951 10.96593327 37.74050951 8.71484375 37.90234375 C7.79832031 37.91394531 6.88179687 37.92554688 5.9375 37.9375 C5.01839844 37.94652344 4.09929688 37.95554687 3.15234375 37.96484375 C2.44207031 37.97644531 1.73179688 37.98804688 1 38 C0.98582031 37.32453125 0.97164062 36.6490625 0.95703125 35.953125 C0.73243909 30.12456884 0.73243909 30.12456884 -2.375 25.375 C-5.94653867 23.50419403 -7.18293373 23.27371887 -10.25 26 Z " fill="#010101" transform="translate(43,42)"/>
<path d="M0 0 C1.36560059 0.00303635 1.36560059 0.00303635 2.75878906 0.00613403 C3.68723633 0.00517731 4.61568359 0.00422058 5.57226562 0.00323486 C7.53938871 0.00255298 9.50651403 0.00440781 11.47363281 0.00857544 C14.49581932 0.01392358 17.51785721 0.00863071 20.54003906 0.00222778 C22.44628939 0.00288856 24.35253963 0.00416972 26.25878906 0.00613403 C27.16918945 0.0041098 28.07958984 0.00208557 29.01757812 0 C35.39383938 0.02399685 35.39383938 0.02399685 36.50878906 1.13894653 C36.63378906 3.63894653 36.63378906 3.63894653 36.50878906 6.13894653 C35.50878906 7.13894653 35.50878906 7.13894653 32.09057617 7.25247192 C30.57241918 7.25231281 29.05425677 7.24661879 27.53613281 7.23660278 C26.73849014 7.23518784 25.94084747 7.23377289 25.11903381 7.23231506 C22.56141471 7.2266997 20.00388188 7.21414465 17.44628906 7.20144653 C15.71647261 7.19643351 13.9866548 7.19187026 12.25683594 7.18777466 C8.00745353 7.17672528 3.75813594 7.1594504 -0.49121094 7.13894653 C-0.47960937 8.28234497 -0.46800781 9.42574341 -0.45605469 10.60379028 C-0.44667806 12.09467407 -0.43757772 13.58555962 -0.42871094 15.07644653 C-0.42033203 15.83119263 -0.41195312 16.58593872 -0.40332031 17.36355591 C-0.39468653 19.28888967 -0.43896761 21.21430234 -0.49121094 23.13894653 C-1.49121094 24.13894653 -1.49121094 24.13894653 -5.0012207 24.25247192 C-6.56169516 24.2523128 -8.12217487 24.24661796 -9.68261719 24.23660278 C-10.5024559 24.23518784 -11.32229462 24.23377289 -12.16697693 24.23231506 C-14.79592476 24.22669943 -17.42478867 24.21414433 -20.05371094 24.20144653 C-21.8317045 24.19643355 -23.6096994 24.19187029 -25.38769531 24.18777466 C-29.75556639 24.17672492 -34.12337442 24.15944985 -38.49121094 24.13894653 C-38.47960937 25.21015747 -38.46800781 26.28136841 -38.45605469 27.38504028 C-38.44667795 28.78217397 -38.43757763 30.17930952 -38.42871094 31.57644653 C-38.42033203 32.28349731 -38.41195312 32.9905481 -38.40332031 33.71902466 C-38.39467506 35.52588213 -38.43901082 37.33282256 -38.49121094 39.13894653 C-39.49121094 40.13894653 -39.49121094 40.13894653 -43.09301758 40.25247192 C-44.6958095 40.25231278 -46.29860654 40.24661717 -47.90136719 40.23660278 C-48.74340195 40.23518784 -49.58543671 40.23377289 -50.45298767 40.23231506 C-53.15326429 40.22669917 -55.85345921 40.21414402 -58.55371094 40.20144653 C-60.37988162 40.19643358 -62.20605359 40.19187032 -64.03222656 40.18777466 C-68.51858636 40.17672457 -73.00488478 40.15944932 -77.49121094 40.13894653 C-77.47960937 41.06578247 -77.46800781 41.99261841 -77.45605469 42.94754028 C-77.44703125 44.14507935 -77.43800781 45.34261841 -77.42871094 46.57644653 C-77.41710937 47.77140747 -77.40550781 48.96636841 -77.39355469 50.19754028 C-77.49121094 53.13894653 -77.49121094 53.13894653 -78.49121094 54.13894653 C-81.15747124 54.22749814 -83.79768208 54.25419327 -86.46386719 54.23660278 C-87.26150986 54.23518784 -88.05915253 54.23377289 -88.88096619 54.23231506 C-91.43858529 54.2266997 -93.99611812 54.21414465 -96.55371094 54.20144653 C-98.28352739 54.19643351 -100.0133452 54.19187026 -101.74316406 54.18777466 C-105.99254647 54.17672528 -110.24186406 54.1594504 -114.49121094 54.13894653 C-114.43900391 55.62007935 -114.43900391 55.62007935 -114.38574219 57.13113403 C-114.35867187 58.41246216 -114.33160156 59.69379028 -114.30371094 61.01394653 C-114.25150391 62.92820435 -114.25150391 62.92820435 -114.19824219 64.88113403 C-114.29492188 65.95621216 -114.39160156 67.03129028 -114.49121094 68.13894653 C-117.60780049 70.2166729 -118.30089796 70.39041408 -121.83911133 70.3977356 C-122.71334244 70.40403992 -123.58757355 70.41034424 -124.48829651 70.4168396 C-125.89932899 70.41076691 -125.89932899 70.41076691 -127.33886719 70.40457153 C-128.30650497 70.40648499 -129.27414276 70.40839844 -130.27110291 70.41036987 C-132.31623596 70.41173081 -134.36137768 70.40804072 -136.40649414 70.39968872 C-139.54495533 70.38897642 -142.68284559 70.39959314 -145.82128906 70.41238403 C-147.80631637 70.41106265 -149.79134333 70.4085007 -151.77636719 70.40457153 C-153.19043602 70.41064423 -153.19043602 70.41064423 -154.6330719 70.4168396 C-155.50415085 70.41053528 -156.3752298 70.40423096 -157.27270508 70.3977356 C-158.42495323 70.39534882 -158.42495323 70.39534882 -159.60047913 70.39291382 C-161.49121094 70.13894653 -161.49121094 70.13894653 -163.49121094 68.13894653 C-162.93565538 63.58339098 -162.93565538 63.58339098 -161.49121094 62.13894653 C-158.53415773 62.05026354 -155.60056038 62.02374357 -152.64355469 62.04129028 C-151.31391441 62.0434127 -151.31391441 62.0434127 -149.95741272 62.045578 C-147.11447839 62.05119438 -144.27162163 62.06374962 -141.42871094 62.07644653 C-139.50618603 62.08145943 -137.58365989 62.0860227 -135.66113281 62.09011841 C-130.93779545 62.10116913 -126.21451636 62.11844471 -121.49121094 62.13894653 C-121.5028125 61.1399231 -121.51441406 60.14089966 -121.52636719 59.11160278 C-121.53539062 57.82125122 -121.54441406 56.53089966 -121.55371094 55.20144653 C-121.5653125 53.9136731 -121.57691406 52.62589966 -121.58886719 51.29910278 C-121.49121094 48.13894653 -121.49121094 48.13894653 -120.49121094 47.13894653 C-117.82495063 47.05039493 -115.18473979 47.0236998 -112.51855469 47.04129028 C-111.72091202 47.04270523 -110.92326935 47.04412018 -110.10145569 47.045578 C-107.54383658 47.05119337 -104.98630376 47.06374841 -102.42871094 47.07644653 C-100.69889449 47.08145956 -98.96907668 47.08602281 -97.23925781 47.09011841 C-92.98987541 47.10116779 -88.74055782 47.11844267 -84.49121094 47.13894653 C-84.5028125 46.29589966 -84.51441406 45.45285278 -84.52636719 44.58425903 C-84.53539063 43.48855591 -84.54441406 42.39285278 -84.55371094 41.26394653 C-84.5653125 40.17339966 -84.57691406 39.08285278 -84.58886719 37.95925903 C-84.49121094 35.13894653 -84.49121094 35.13894653 -83.49121094 33.13894653 C-70.95121094 33.13894653 -58.41121094 33.13894653 -45.49121094 33.13894653 C-45.49121094 28.51894653 -45.49121094 23.89894653 -45.49121094 19.13894653 C-43.49121094 17.13894653 -43.49121094 17.13894653 -39.95947266 16.91189575 C-38.44657763 16.91221291 -36.93366005 16.9235402 -35.42089844 16.94363403 C-34.62467072 16.94646393 -33.82844299 16.94929382 -33.00808716 16.95220947 C-30.46064331 16.96342014 -27.91354883 16.98852591 -25.36621094 17.01394653 C-23.64095559 17.02397521 -21.91569475 17.03310125 -20.19042969 17.04129028 C-15.9572218 17.06336231 -11.72427564 17.09789787 -7.49121094 17.13894653 C-7.5028125 15.9955481 -7.51441406 14.85214966 -7.52636719 13.67410278 C-7.53574382 12.18321899 -7.54484415 10.69233344 -7.55371094 9.20144653 C-7.56208984 8.44670044 -7.57046875 7.69195435 -7.57910156 6.91433716 C-7.58773535 4.9890034 -7.54345427 3.06359072 -7.49121094 1.13894653 C-5.54257169 -0.80969271 -2.59312374 0.00975913 0 0 Z " fill="#010101" transform="translate(163.4912109375,83.86105346679688)"/>
</svg>
