<?xml version="1.0" encoding="UTF-8"?>
<svg version="1.1" xmlns="http://www.w3.org/2000/svg" width="469" height="532">
<path d="M0 0 C2.4375 2.125 2.4375 2.125 4 4 C4 4.66 4 5.32 4 6 C4.66 6 5.32 6 6 6 C10.7939887 14.90312188 11.98148967 25.25767454 9.1171875 35.00390625 C6.49906153 40.68229205 2.68805704 44.91990425 -2 49 C-1.29875 49.23074219 -0.5975 49.46148437 0.125 49.69921875 C6.10333005 51.7542697 12.0991132 53.87145925 17 58 C17 58.66 17 59.32 17 60 C17.66 60 18.32 60 19 60 C19 60.66 19 61.32 19 62 C20.485 62.495 20.485 62.495 22 63 C22 63.66 22 64.32 22 65 C22.66 65 23.32 65 24 65 C26.28643391 68.15138985 28.10238932 71.60402841 30 75 C30.43828125 75.75667969 30.8765625 76.51335937 31.328125 77.29296875 C38.7542936 90.94677875 40.94135254 106.11393934 42.69042969 121.34204102 C42.94248942 123.50621636 43.22708247 125.66658321 43.52124023 127.82543945 C44.29167723 133.98618671 44.2619436 140.17333711 44.29516602 146.37304688 C44.3067503 147.87802483 44.32730262 149.3829597 44.35668945 150.88769531 C44.3994456 153.08426252 44.41553486 155.27963059 44.42578125 157.4765625 C44.44036377 158.77674316 44.45494629 160.07692383 44.4699707 161.41650391 C43.84869008 166.15372832 41.96643287 169.39429978 38.25390625 172.42578125 C34.81884477 174.22661025 31.80115831 175.34148029 28 176 C27.99191315 177.02428604 27.98382629 178.04857208 27.97549438 179.10389709 C27.8979134 188.77033257 27.81014405 198.43662937 27.71247292 208.10288334 C27.66258813 213.07206 27.61625745 218.0412162 27.578125 223.01049805 C27.54117339 227.80869099 27.49478675 232.6067095 27.44193649 237.40475273 C27.42344496 239.23267994 27.40831778 241.06064447 27.39665604 242.88862801 C27.37970364 245.45465981 27.35064745 248.02029667 27.31884766 250.58618164 C27.31668747 251.33712601 27.31452728 252.08807037 27.31230164 252.86177063 C27.23846967 257.54425562 26.47120283 261.5098169 25 266 C24.7525 266.845625 24.505 267.69125 24.25 268.5625 C22.42239885 272.12632224 20.34231027 274.81476842 17 277 C13.16885925 277.9291753 9.48983676 277.92985804 5.5625 277.875 C4.55123047 277.91496094 3.53996094 277.95492188 2.49804688 277.99609375 C-1.77883235 277.990514 -4.79472705 277.94703782 -8.23339844 275.24511719 C-15.53338603 267.02373557 -16.12075135 258.31741384 -16.20532227 247.74804688 C-16.21522186 246.96659302 -16.22512146 246.18513916 -16.23532104 245.38000488 C-16.26662127 242.82628287 -16.29156736 240.27254232 -16.31640625 237.71875 C-16.33700305 235.93655953 -16.35800019 234.15437364 -16.37937927 232.37219238 C-16.43431861 227.70340715 -16.48385084 223.0345799 -16.53222656 218.36572266 C-16.5826483 213.59273584 -16.63822598 208.8198093 -16.69335938 204.046875 C-16.80059628 194.69796828 -16.90211638 185.349009 -17 176 C-18.98 176 -20.96 176 -23 176 C-22.99555878 176.98003998 -22.99111755 177.96007996 -22.98654175 178.96981812 C-22.94587318 188.23785927 -22.91595703 197.50588216 -22.89637566 206.77399254 C-22.88597004 211.53800573 -22.87187011 216.30194646 -22.84912109 221.06591797 C-22.82727728 225.66950816 -22.81540718 230.27302897 -22.81024551 234.87666702 C-22.80657037 236.62679765 -22.79939412 238.37692478 -22.78853989 240.1270256 C-22.64130034 264.86731542 -22.64130034 264.86731542 -31.26489258 275.56982422 C-34.79562369 278.48005678 -39.86948322 277.64136073 -44.25 277.6875 C-45.27480469 277.74099609 -46.29960937 277.79449219 -47.35546875 277.84960938 C-54.76167233 277.94016141 -54.76167233 277.94016141 -58.22460938 275.31103516 C-65.02711919 267.71724894 -66.12883574 260.72706996 -66.20532227 250.69970703 C-66.21522186 249.88928452 -66.22512146 249.078862 -66.23532104 248.24388123 C-66.26675019 245.5818874 -66.29161949 242.91987576 -66.31640625 240.2578125 C-66.33699185 238.40550286 -66.35798874 236.55319774 -66.37937927 234.70089722 C-66.4344341 229.83809081 -66.4839162 224.97524318 -66.53222656 220.11236572 C-66.58256309 215.14518589 -66.63818558 210.17806554 -66.69335938 205.2109375 C-66.80073789 195.47400921 -66.90222754 185.73702916 -67 176 C-67.61560791 175.80519043 -68.23121582 175.61038086 -68.86547852 175.40966797 C-69.67428467 175.14814941 -70.48309082 174.88663086 -71.31640625 174.6171875 C-72.51825562 174.23216064 -72.51825562 174.23216064 -73.74438477 173.83935547 C-77.58945808 172.40853373 -80.19735168 170.53256933 -82.11010742 166.88037109 C-83.25721722 163.16744889 -83.30471136 159.63699961 -83.30078125 155.7890625 C-83.3063353 154.99233627 -83.31188934 154.19561005 -83.31761169 153.3747406 C-83.32941363 150.79130781 -83.32311999 148.20843281 -83.3125 145.625 C-83.31100952 144.7458493 -83.30951904 143.86669861 -83.3079834 142.96090698 C-83.26568038 129.12987251 -82.67740679 115.60705562 -80 102 C-79.85546387 101.25331055 -79.71092773 100.50662109 -79.56201172 99.73730469 C-76.28663242 83.5236331 -70.35287367 69.32773893 -58 58 C-57.34 58 -56.68 58 -56 58 C-56 57.34 -56 56.68 -56 56 C-50.17814801 52.5178994 -44.51819877 49.89536276 -38 48 C-39.11375 46.948125 -39.11375 46.948125 -40.25 45.875 C-46.74260944 39.08727195 -49.39141636 33.08167723 -49.375 23.75 C-49.37693359 22.6209021 -49.37693359 22.6209021 -49.37890625 21.46899414 C-49.26509671 15.4778271 -48.04257082 11.22941859 -45 6 C-44.34 6 -43.68 6 -43 6 C-42.79375 5.443125 -42.5875 4.88625 -42.375 4.3125 C-39.57302251 -0.39991669 -35.20070973 -3.43978708 -30 -5 C-19.12658758 -7.47123009 -9.30819671 -6.08612862 0 0 Z M-29 16 C-31.3788114 19.02757815 -31.35978528 22.244687 -31.25390625 26.03515625 C-30.87642532 28.95627792 -29.85858628 30.74314524 -28 33 C-25.091747 34.77726572 -22.89134808 35.27322841 -19.5 35.25 C-18.7471875 35.25515625 -17.994375 35.2603125 -17.21875 35.265625 C-13.591382 34.83136263 -11.56182535 33.6822165 -9.25 30.875 C-7.64335165 27.17970881 -7.29996252 23.93097971 -8 20 C-9.62390049 16.86819191 -11.00266026 14.75660256 -13.8125 12.625 C-20.04442965 10.84444867 -24.07689668 11.8783321 -29 16 Z M-49.48046875 74.54296875 C-67.74804778 96.56737637 -65.3039724 130.25042866 -65 157 C-61.37 157 -57.74 157 -54 157 C-53.9906543 156.20827393 -53.98130859 155.41654785 -53.97167969 154.60083008 C-53.91790656 151.00409292 -53.83427037 147.40864648 -53.75 143.8125 C-53.73582031 142.56662109 -53.72164062 141.32074219 -53.70703125 140.03710938 C-53.67480469 138.83505859 -53.64257812 137.63300781 -53.609375 136.39453125 C-53.58842773 135.28956299 -53.56748047 134.18459473 -53.54589844 133.04614258 C-52.88195782 129.34131829 -51.63018661 127.65147517 -49 125 C-44.41050762 123.5034264 -41.41111478 124.21454878 -37 126 C-35.80886128 131.56485119 -35.92188157 136.96922589 -36 142.625 C-36.0255771 144.49212854 -36.04658606 146.35932659 -36.0625 148.2265625 C-36.07410156 149.04721191 -36.08570313 149.86786133 -36.09765625 150.71337891 C-36.06319413 153.31649669 -36.06319413 153.31649669 -35 157 C-24.77 157 -14.54 157 -4 157 C-3.71143068 148.66873101 -3.71143068 148.66873101 -3.43188477 140.3371582 C-3.39377686 139.29390381 -3.35566895 138.25064941 -3.31640625 137.17578125 C-3.26141968 135.58117065 -3.26141968 135.58117065 -3.20532227 133.9543457 C-3.0151475 131.21795468 -2.6068493 128.67143268 -2 126 C5.16428571 123.81428571 5.16428571 123.81428571 8.8125 124.625 C11.34095615 126.21431529 12.45380056 127.44275116 14 130 C14.43237305 132.93261719 14.43237305 132.93261719 14.51171875 136.296875 C14.54716797 137.50214844 14.58261719 138.70742188 14.61914062 139.94921875 C14.64169922 141.20347656 14.66425781 142.45773437 14.6875 143.75 C14.72166016 145.01972656 14.75582031 146.28945313 14.79101562 147.59765625 C14.87349001 150.73168274 14.94264484 153.86542955 15 157 C18.63 157 22.26 157 26 157 C26.77589053 113.1880211 26.77589053 113.1880211 8.08984375 74.953125 C-2.39965206 65.1710133 -15.15218168 65.42474392 -28.75341797 65.859375 C-36.6772202 66.3553661 -43.9056428 68.73279394 -49.48046875 74.54296875 Z M-48 175 C-48.09264316 185.75269899 -48.16373616 196.50530318 -48.20724869 207.25831985 C-48.22813162 212.25129534 -48.25646222 217.24399797 -48.30175781 222.23681641 C-48.34519028 227.05436641 -48.36913178 231.8716538 -48.37950897 236.68938446 C-48.38690502 238.52823776 -48.40134769 240.36707654 -48.42292023 242.20581818 C-48.45192002 244.7797817 -48.4559575 247.35265745 -48.45410156 249.92675781 C-48.46848267 250.68848801 -48.48286377 251.4502182 -48.49768066 252.23503113 C-48.46940581 255.85444556 -48.28604853 257.64679681 -45.97161865 260.50457764 C-45.3209845 260.99806702 -44.67035034 261.4915564 -44 262 C-40.58927533 258.58927533 -40.88405551 255.13967325 -40.86447144 250.43652344 C-40.86649567 249.7044165 -40.8685199 248.97230957 -40.87060547 248.21801758 C-40.86885315 247.43875412 -40.86710083 246.65949066 -40.86529541 245.85661316 C-40.86090081 243.28589642 -40.86380561 240.71524867 -40.8671875 238.14453125 C-40.86651398 236.35902391 -40.86554355 234.57351667 -40.86428833 232.78800964 C-40.86281477 229.04982631 -40.86495571 225.31166688 -40.86962891 221.57348633 C-40.87533839 216.77130395 -40.87203734 211.96917731 -40.86605644 207.16699696 C-40.86245217 203.48255489 -40.86358858 199.79812616 -40.86618423 196.1136837 C-40.86685323 194.34217001 -40.86602602 192.57065513 -40.86370468 190.79914284 C-40.86117901 188.3306619 -40.86501694 185.86227288 -40.87060547 183.39379883 C-40.86858124 182.6556192 -40.86655701 181.91743958 -40.86447144 181.15689087 C-40.58148053 177.79294296 -40.58148053 177.79294296 -42 175 C-43.99958364 174.95919217 -46.00045254 174.95745644 -48 175 Z M2 176 C1.88900734 178.49870969 1.8426131 180.97004126 1.83886719 183.46972656 C1.83390228 184.25188034 1.82893738 185.03403412 1.82382202 185.83988953 C1.80915926 188.44014349 1.80239055 191.0403364 1.796875 193.640625 C1.7911256 195.44325768 1.78536785 197.24589033 1.77960205 199.04852295 C1.76907945 202.83492316 1.76324548 206.62130206 1.75976562 210.40771484 C1.75428737 215.25789638 1.73027904 220.10779625 1.70179367 224.95788956 C1.68315901 228.68453794 1.67796118 232.41111872 1.67642975 236.13780975 C1.67340304 237.92557053 1.66537389 239.7133301 1.65224457 241.50104523 C1.63517151 244.00514522 1.63706758 246.50856058 1.64355469 249.01269531 C1.6343399 249.75055771 1.62512512 250.4884201 1.6156311 251.24864197 C1.65154732 255.6790344 2.36003424 258.42556204 5 262 C8.15622616 259.59410064 8.94398882 258.41195594 9.48774719 254.41267395 C9.50234848 252.95331826 9.4948674 251.49364019 9.4699707 250.03442383 C9.4721611 249.23565323 9.4743515 248.43688263 9.47660828 247.61390686 C9.47891699 244.97785833 9.45268281 242.34293053 9.42578125 239.70703125 C9.42085803 237.87668716 9.4175587 236.04633804 9.41581726 234.21598816 C9.40817962 230.38349285 9.38762219 226.55137133 9.35668945 222.71899414 C9.31703092 217.79572895 9.29906742 212.87270656 9.28938007 207.94929981 C9.27942962 203.26434379 9.25952551 198.57944766 9.23828125 193.89453125 C9.2348855 192.99528238 9.23148975 192.09603352 9.2279911 191.16953468 C9.21646956 188.63874718 9.19795924 186.10811735 9.17700195 183.57739258 C9.1729686 182.44207092 9.1729686 182.44207092 9.16885376 181.28381348 C9.43864056 177.85244072 9.43864056 177.85244072 8 175 C4.71105107 174.59371033 4.71105107 174.59371033 2 176 Z " fill="#D54847" transform="translate(254,255)"/>
<path d="M0 0 C3.2578125 -0.29296875 3.2578125 -0.29296875 7.125 -0.1875 C9.04699219 -0.14689453 9.04699219 -0.14689453 11.0078125 -0.10546875 C11.99523437 -0.07066406 12.98265625 -0.03585937 14 0 C17.06340949 5.34018766 15.67552865 10.36978573 14.2109375 16.07226562 C13.18553428 19.64658784 12.10274498 23.19878346 11 26.75 C10.59667755 28.06905501 10.19402046 29.38831364 9.79199219 30.70776367 C8.53934904 34.80871406 7.27089122 38.90467443 6 43 C5.59174706 44.31785566 5.18354319 45.63572653 4.77539062 46.95361328 C3.22003754 51.97294857 1.661858 56.99139497 0.09790039 62.00805664 C-2.03844197 68.86644418 -4.12567842 75.7344429 -6.12695312 82.63330078 C-7.93429342 88.83880671 -9.84118107 95.01255808 -11.75 101.1875 C-14.69491367 110.7148333 -17.58444329 120.25727031 -20.4375 129.8125 C-23.77906791 140.99951951 -27.21052713 152.15568988 -30.69067383 163.30029297 C-33.59028804 172.6127469 -36.36907363 181.95749674 -39.11694336 191.31567383 C-41.46197924 199.26980578 -43.94598332 207.17108824 -46.4921875 215.06274414 C-48.77351273 222.17815044 -50.84796504 229.34146344 -52.8737793 236.53320312 C-54.50702671 242.31850662 -56.23154394 248.06212204 -58.04443359 253.79394531 C-62.6430117 268.33510303 -66.99363589 282.95480136 -71.375 297.5625 C-71.75221191 298.8201416 -72.12942383 300.0777832 -72.51806641 301.37353516 C-74.26539889 307.20174343 -76.00996791 313.03075783 -77.74781799 318.86180115 C-81.61982648 331.8514728 -85.53893494 344.81871972 -89.68798828 357.72290039 C-91.5549328 363.54572822 -93.28662156 369.39311691 -94.9375 375.28125 C-98.40878902 387.43076158 -102.22317407 399.48412795 -105.9453125 411.55859375 C-106.20576355 412.40383102 -106.4662146 413.2490683 -106.73455811 414.11991882 C-108.03761952 418.34857921 -109.34181453 422.57688206 -110.6484375 426.80444336 C-113.244091 435.21424819 -115.79109557 443.6353445 -118.26048279 452.08311462 C-120.00801362 458.05403234 -121.83684762 463.99775879 -123.6875 469.9375 C-127.42048394 481.97955989 -130.98393537 494.06827329 -134.4987793 506.17553711 C-140.64817227 527.29634454 -140.64817227 527.29634454 -143 532 C-145.47923801 532.02685095 -147.9581884 532.04676547 -150.4375 532.0625 C-151.14455078 532.07087891 -151.85160156 532.07925781 -152.58007812 532.08789062 C-154.38693559 532.09653588 -156.19387603 532.05220011 -158 532 C-159.58717379 530.41282621 -159.210907 528.80491263 -159.25390625 526.60546875 C-159.18880405 520.78037229 -157.76108343 515.80672169 -155.9375 510.3125 C-155.29135146 508.2800481 -154.64552733 506.24749304 -154 504.21484375 C-153.66742188 503.18472168 -153.33484375 502.15459961 -152.9921875 501.09326172 C-151.42344481 496.20252111 -149.92983219 491.28949081 -148.4375 486.375 C-148.14746094 485.4257666 -147.85742188 484.4765332 -147.55859375 483.49853516 C-145.60573845 477.08279249 -143.75175921 470.64362083 -141.9375 464.1875 C-139.91052367 456.98151538 -137.66848802 449.88601487 -135.24975586 442.80297852 C-132.73481747 435.3662623 -130.62011884 427.82807645 -128.4921875 420.2734375 C-124.92629037 407.61890791 -121.04180413 395.07234645 -117 382.5625 C-114.23800949 374.00911312 -111.63876236 365.43044671 -109.20776367 356.77758789 C-107.22529871 349.73404543 -105.1129224 342.73602568 -102.96557617 335.74121094 C-101.01796827 329.38068207 -99.10551706 323.01044728 -97.21484375 316.6328125 C-96.97107498 315.81073303 -96.72730621 314.98865356 -96.47615051 314.1416626 C-95.25502546 310.02154108 -94.03618252 305.90075595 -92.81958008 301.77929688 C-88.82642422 288.27712466 -88.82642422 288.27712466 -86.68896484 282.01904297 C-85.29965188 277.94759783 -84.00000655 273.84670235 -82.6875 269.75 C-82.41744141 268.91726563 -82.14738281 268.08453125 -81.86914062 267.2265625 C-79.85184042 260.92192497 -78.01099615 254.57508567 -76.20703125 248.20703125 C-72.95527508 236.7372156 -69.49148539 225.33622887 -66 213.9375 C-64.81173404 210.05101508 -63.62457287 206.16419322 -62.4375 202.27734375 C-62.14847305 201.33203293 -61.85944611 200.38672211 -61.56166077 199.4127655 C-59.62085006 193.05802173 -57.70881325 186.69510796 -55.80859375 180.328125 C-53.65599877 173.12327664 -51.40467972 165.95819617 -49.0625 158.8125 C-45.96310566 149.25193438 -43.16696889 139.63457066 -40.49975586 129.94555664 C-38.16217971 121.48471337 -35.57048401 113.12930896 -32.88476562 104.77392578 C-31.22031234 99.55551567 -29.59391295 94.32518568 -27.96820068 89.09460449 C-27.39579209 87.25434533 -26.82122754 85.4147572 -26.24658203 83.57519531 C-24.42750702 77.72406651 -22.66156403 71.86445329 -20.9921875 65.96875 C-19.0309173 59.04443291 -16.90696998 52.1779718 -14.75 45.3125 C-12.34574583 37.63195054 -9.9648508 29.94770258 -7.70703125 22.22265625 C-7.34577148 20.98797607 -6.98451172 19.7532959 -6.61230469 18.48120117 C-5.9247633 16.11941655 -5.24164995 13.75633732 -4.56347656 11.3918457 C-4.10086426 9.80182739 -4.10086426 9.80182739 -3.62890625 8.1796875 C-3.2278064 6.78339111 -3.2278064 6.78339111 -2.81860352 5.35888672 C-2 3 -2 3 0 0 Z " fill="#D54646" transform="translate(159,0)"/>
<path d="M0 0 C3.2578125 -0.29296875 3.2578125 -0.29296875 7.125 -0.1875 C9.04699219 -0.14689453 9.04699219 -0.14689453 11.0078125 -0.10546875 C11.99523437 -0.07066406 12.98265625 -0.03585937 14 0 C16.61406375 5.72416972 18.4686311 11.53285936 20.25 17.5625 C22.60949946 25.44346775 25.03674166 33.29578077 27.5625 41.125 C30.03234503 48.81620195 32.33109928 56.53832236 34.51538086 64.31494141 C36.94323019 72.90970275 39.52910931 81.45485062 42.125 90 C42.33710114 90.6985611 42.54920227 91.39712219 42.76773071 92.11685181 C44.78854557 98.76920242 46.81872499 105.41860245 48.8671875 112.0625 C51.62680128 121.01899593 54.34660861 129.98764181 57.07342529 138.9541626 C58.26705534 142.87786462 59.46211613 146.80112988 60.65737915 150.72433472 C61.83187567 154.57939301 63.00590252 158.43459427 64.17993164 162.28979492 C64.76995956 164.22701246 65.36012962 166.16418671 65.95043945 168.10131836 C69.0398287 178.23978449 72.11938153 188.38082091 75.15625 198.53515625 C77.52677077 206.45843412 79.96375272 214.35827002 82.4375 222.25 C85.61391385 232.42231096 88.66247046 242.62314512 91.61035156 252.86376953 C93.51285611 259.43534664 95.58904746 265.91928264 97.80639648 272.39038086 C98.92044188 275.75940543 99.92421131 279.13472555 100.8828125 282.55078125 C102.91946225 289.74141146 105.03716753 296.90512942 107.1875 304.0625 C107.37842224 304.69874298 107.56934448 305.33498596 107.76605225 305.99050903 C111.03163982 316.86733971 114.37678884 327.71812526 117.75341797 338.56103516 C126.61593785 367.02013441 126.61593785 367.02013441 130 379 C133.50522057 391.39971777 137.35819849 403.69994723 141.16729736 416.00895691 C142.22330961 419.42190118 143.27760194 422.83537622 144.33203125 426.24880981 C145.1021676 428.73868221 145.87523826 431.22763012 146.6484375 433.71655273 C149.34005914 442.41113489 151.89740998 451.1271174 154.30140686 459.90565491 C155.72525392 465.08171683 157.28852013 470.1821997 159.0625 475.25 C161.1917247 481.48708193 163.11203882 487.73970116 164.85546875 494.09765625 C165.74129828 497.22357217 166.75798624 500.29412544 167.80078125 503.37109375 C168.12119385 504.32983398 168.44160645 505.28857422 168.77172852 506.27636719 C169.40577133 508.16314696 170.0526326 510.04568671 170.71459961 511.92285156 C172.85174885 518.33021743 173.67433723 524.24186685 173 531 C172 532 172 532 168.62109375 532.09765625 C167.22652923 532.09098369 165.83198257 532.07902532 164.4375 532.0625 C163.37112305 532.05573242 163.37112305 532.05573242 162.28320312 532.04882812 C160.52209987 532.03700864 158.76103964 532.01907263 157 532 C153.93861064 524.29682872 151.62599075 516.37130123 149.25 508.4375 C148.80333036 506.95271809 148.35638752 505.46801834 147.90917969 503.98339844 C147.23684341 501.75125297 146.56470393 499.51905059 145.89361572 497.28652954 C144.31332275 492.03058728 142.71276545 486.78108919 141.10351562 481.53393555 C138.30741537 472.41381791 135.60794113 463.27218689 133.04003906 454.08496094 C131.97218185 450.28694369 130.86176695 446.52149328 129.59375 442.78515625 C127.68586977 437.15482244 126.01777926 431.45464613 124.32699585 425.75610352 C121.1270706 414.97719416 117.86375303 404.2230557 114.38378906 393.53051758 C112.85101929 388.79325892 111.4270972 384.03700017 110.0703125 379.24609375 C108.05931945 372.14694776 105.89276865 365.10334242 103.6875 358.0625 C102.89542169 355.51965831 102.10370556 352.97670682 101.3125 350.43359375 C100.72855469 348.55776611 100.72855469 348.55776611 100.1328125 346.64404297 C91.91064657 320.19489454 91.91064657 320.19489454 88.921875 308.25390625 C88.02579989 305.09106488 86.92679736 302.09372702 85.74951172 299.02905273 C84.5637257 295.81893298 83.62586347 292.53864216 82.6875 289.25 C82.25181789 287.74724619 81.81559774 286.2446483 81.37890625 284.7421875 C81.15348145 283.96456055 80.92805664 283.18693359 80.69580078 282.38574219 C75.54741736 264.73310962 70.16161365 247.14230421 64.6953125 229.5859375 C64.49772842 228.95121017 64.30014435 228.31648285 64.09657288 227.66252136 C63.13215435 224.56534626 62.16569442 221.46883289 61.19604492 218.37329102 C59.02847272 211.42484141 56.97731413 204.45302733 54.99389648 197.44995117 C53.37621144 191.83474425 51.62394094 186.26294045 49.875 180.6875 C49.08503626 178.15522365 48.2956913 175.62276828 47.5078125 173.08984375 C47.30494629 172.43766876 47.10208008 171.78549377 46.89306641 171.11355591 C44.47775838 163.33614567 42.11040485 155.54422006 39.75 147.75 C39.53479706 147.03955536 39.31959412 146.32911072 39.09786987 145.59713745 C36.84564812 138.15739948 34.60651516 130.71450385 32.4375 123.25 C30.22841934 115.68272369 27.90016261 108.15342778 25.5625 100.625 C25.36585754 99.99145599 25.16921509 99.35791199 24.96661377 98.70516968 C23.09863983 92.69091646 21.22557793 86.67868427 19.296875 80.68359375 C16.44625233 71.81824891 13.86452174 62.92508576 11.46899414 53.92578125 C8.59749796 43.2764254 5.26103698 32.77362983 1.953125 22.25390625 C-2.46795257 8.14747832 -2.46795257 8.14747832 -2 3 C-1.34 2.01 -0.68 1.02 0 0 Z " fill="#D44647" transform="translate(296,0)"/>
<path d="M0 0 C2.63016161 2.1727422 4.47336894 3.94673788 6 7 C6.10080815 8.73521626 6.13836626 10.47427399 6.14526367 12.21240234 C6.15164352 13.30048187 6.15802338 14.3885614 6.16459656 15.50961304 C6.16570938 16.68980011 6.1668222 17.86998718 6.16796875 19.0859375 C6.17129715 20.29440338 6.17462555 21.50286926 6.17805481 22.74795532 C6.18312552 25.30852883 6.18546309 27.86910897 6.18530273 30.4296875 C6.18748701 34.35167319 6.20563545 38.27337671 6.22460938 42.1953125 C6.22754367 44.67968653 6.22952822 47.16406191 6.23046875 49.6484375 C6.23765427 50.82457611 6.24483978 52.00071472 6.25224304 53.2124939 C6.24916641 54.30687775 6.24608978 55.4012616 6.24291992 56.52880859 C6.24434494 57.49096283 6.24576996 58.45311707 6.24723816 59.44442749 C5.98474594 62.15767328 5.49186453 63.73093054 4 66 C-0.0016041 68.66773607 -3.29431148 68.71478813 -8 68 C-10.50160818 66.12379387 -11.61945652 64.76108697 -13 62 C-13.10585877 60.27022588 -13.14877551 58.536433 -13.16113281 56.8034668 C-13.17074036 55.71861496 -13.1803479 54.63376312 -13.19024658 53.51603699 C-13.1966214 51.75046196 -13.1966214 51.75046196 -13.203125 49.94921875 C-13.20882507 48.74312454 -13.21452515 47.53703033 -13.22039795 46.29438782 C-13.22985846 43.73801555 -13.23638609 41.18163102 -13.24023438 38.62524414 C-13.24993394 34.71413873 -13.28094591 30.80355997 -13.3125 26.89257812 C-13.31903044 24.41146146 -13.32428075 21.93034103 -13.328125 19.44921875 C-13.3404718 18.27824142 -13.3528186 17.1072641 -13.36553955 15.90080261 C-13.36253845 14.80649429 -13.35953735 13.71218597 -13.35644531 12.5847168 C-13.36009094 11.62478317 -13.36373657 10.66484955 -13.36749268 9.67582703 C-12.92536752 6.45657799 -11.9103745 4.61101903 -10 2 C-6.24952518 -0.50031654 -4.44143734 -0.53603554 0 0 Z " fill="#D84C4A" transform="translate(238,81)"/>
<path d="M0 0 C3.38939556 2.13679285 4.72582557 3.1774767 6 7 C6.11261377 8.76230608 6.16902577 10.52844995 6.19287109 12.29418945 C6.21696548 13.91651237 6.21696548 13.91651237 6.24154663 15.5716095 C6.28603961 20.51282083 6.32705228 25.4538989 6.35009766 30.39526367 C6.36666565 33.00147424 6.3939663 35.60763923 6.43212891 38.21362305 C6.48687877 41.97208215 6.50876921 45.72947714 6.5234375 49.48828125 C6.54610687 50.65096024 6.56877625 51.81363922 6.59213257 53.0115509 C6.56856645 62.0327508 6.56856645 62.0327508 3.61206055 65.73657227 C0.14551594 68.74043571 -1.52265754 68.76415731 -5.91015625 68.46484375 C-8.9425242 67.79035443 -10.26454458 66.53087248 -12 64 C-13.00489816 60.98530553 -13.13817125 58.93461805 -13.16113281 55.78173828 C-13.17074036 54.71698273 -13.1803479 53.65222717 -13.19024658 52.5552063 C-13.19449646 51.40519135 -13.19874634 50.25517639 -13.203125 49.0703125 C-13.20882507 47.88782928 -13.21452515 46.70534607 -13.22039795 45.48703003 C-13.22984965 42.98371272 -13.2363826 40.48038297 -13.24023438 37.97705078 C-13.24994362 34.14724039 -13.2809678 30.31796574 -13.3125 26.48828125 C-13.31902969 24.05729486 -13.32428029 21.62630462 -13.328125 19.1953125 C-13.3404718 18.04934601 -13.3528186 16.90337952 -13.36553955 15.72268677 C-13.36253845 14.65162689 -13.35953735 13.58056702 -13.35644531 12.47705078 C-13.36009094 11.53789825 -13.36373657 10.59874573 -13.36749268 9.63113403 C-12.92169186 6.4393379 -11.89107564 4.59228396 -10 2 C-6.2626144 -0.4915904 -4.42668417 -0.45793285 0 0 Z " fill="#D84240" transform="translate(238,165)"/>
<path d="M0 0 C4.95 0 9.9 0 15 0 C16.94408464 3.88816928 17.25459972 5.27419675 17.2746582 9.42358398 C17.28895622 11.05063515 17.28895622 11.05063515 17.30354309 12.71055603 C17.30263168 13.87728348 17.30172028 15.04401093 17.30078125 16.24609375 C17.30506638 17.44935806 17.3093515 18.65262238 17.31376648 19.89234924 C17.31950898 22.43677135 17.32001064 24.98120987 17.31567383 27.52563477 C17.31251495 31.41906739 17.33597157 35.31173951 17.36132812 39.20507812 C17.36360121 41.67708237 17.36430457 44.14908867 17.36328125 46.62109375 C17.372491 47.78579697 17.38170074 48.95050018 17.39118958 50.15049744 C17.38496078 51.23835037 17.37873199 52.32620331 17.37231445 53.44702148 C17.37294388 54.4009227 17.3735733 55.35482391 17.3742218 56.33763123 C16.83450705 60.17738535 15.3079124 62.97235454 12.25 65.375 C8.85887913 66.31697802 6.39008797 65.84752199 3 65 C0.6818638 63.10888889 -0.66914015 61.66171969 -2 59 C-2.10080815 57.26478374 -2.13836626 55.52572601 -2.14526367 53.78759766 C-2.15164352 52.69951813 -2.15802338 51.6114386 -2.16459656 50.49038696 C-2.16570938 49.31019989 -2.1668222 48.13001282 -2.16796875 46.9140625 C-2.17129715 45.70559662 -2.17462555 44.49713074 -2.17805481 43.25204468 C-2.18312552 40.69147117 -2.18546309 38.13089103 -2.18530273 35.5703125 C-2.18748701 31.64832681 -2.20563545 27.72662329 -2.22460938 23.8046875 C-2.22754367 21.32031347 -2.22952822 18.83593809 -2.23046875 16.3515625 C-2.23765427 15.17542389 -2.24483978 13.99928528 -2.25224304 12.7875061 C-2.24916641 11.69312225 -2.24608978 10.5987384 -2.24291992 9.47119141 C-2.24434494 8.50903717 -2.24576996 7.54688293 -2.24723816 6.55557251 C-2 4 -2 4 0 0 Z " fill="#D74B4A" transform="translate(227,0)"/>
<path d="M0 0 C1.27056745 2.5411349 1.11340313 4.29245126 1.09765625 7.13647461 C1.09435303 8.20776108 1.0910498 9.27904755 1.08764648 10.38279724 C1.07934814 11.54424759 1.0710498 12.70569794 1.0625 13.90234375 C1.05871338 15.09098526 1.05492676 16.27962677 1.05102539 17.50428772 C1.0346174 22.60698567 1.00649885 27.70960477 0.97949219 32.81225586 C0.96146552 36.52978143 0.94933337 40.24729416 0.9375 43.96484375 C0.92920166 45.12426987 0.92090332 46.28369598 0.91235352 47.47825623 C0.90739868 49.08991417 0.90739868 49.08991417 0.90234375 50.73413086 C0.89448853 52.15404579 0.89448853 52.15404579 0.88647461 53.60264587 C0.89843681 56.1469766 0.89843681 56.1469766 2 59 C4.01508358 59.73323796 4.01508358 59.73323796 6 60 C6 59.34 6 58.68 6 58 C7.65 57.34 9.3 56.68 11 56 C11.33 56.66 11.66 57.32 12 58 C13.32 57.34 14.64 56.68 16 56 C16 38.18 16 20.36 16 2 C16.33 2 16.66 2 17 2 C17.12689674 9.72280309 17.21439284 17.44533679 17.2746582 25.16894531 C17.29978429 27.79567512 17.33389085 30.42233514 17.37719727 33.04882812 C17.43792806 36.8269982 17.46623015 40.60424296 17.48828125 44.3828125 C17.51408768 45.55490265 17.5398941 46.7269928 17.56648254 47.93460083 C17.56960705 57.04108204 17.56960705 57.04108204 14.61425781 60.74316406 C11.14512224 63.7379987 9.47441896 63.76395787 5.08984375 63.46484375 C2.0574758 62.79035443 0.73545542 61.53087248 -1 59 C-2.0111466 55.9665602 -2.13248421 53.90774148 -2.14526367 50.73413086 C-2.15164352 49.65969223 -2.15802338 48.5852536 -2.16459656 47.47825623 C-2.16570938 46.31883011 -2.1668222 45.15940399 -2.16796875 43.96484375 C-2.17129715 42.77524551 -2.17462555 41.58564728 -2.17805481 40.36000061 C-2.18312004 37.84408963 -2.18546326 35.32817193 -2.18530273 32.81225586 C-2.18749314 28.94959565 -2.20566416 25.08721917 -2.22460938 21.22460938 C-2.2275425 18.78385515 -2.22952784 16.34309956 -2.23046875 13.90234375 C-2.23765427 12.7408934 -2.24483978 11.57944305 -2.25224304 10.38279724 C-2.24916641 9.31151077 -2.24608978 8.2402243 -2.24291992 7.13647461 C-2.24434494 6.19066025 -2.24576996 5.24484589 -2.24723816 4.27037048 C-2 2 -2 2 0 0 Z " fill="#DD9091" transform="translate(227,170)"/>
<path d="M0 0 C2.69725519 1.88807863 4.13216429 3.19824644 6 6 C6.33 5.01 6.66 4.02 7 3 C7.99 3.33 8.98 3.66 10 4 C10 7.63 10 11.26 10 15 C9.01 15.33 8.02 15.66 7 16 C6.67 16.99 6.34 17.98 6 19 C0.74285714 23 0.74285714 23 -3 23 C-3 21.68 -3 20.36 -3 19 C-3.66 19 -4.32 19 -5 19 C-5 14.05 -5 9.1 -5 4 C-3.35 3.34 -1.7 2.68 0 2 C0 1.34 0 0.68 0 0 Z " fill="#D84141" transform="translate(212,269)"/>
<path d="M0 0 C0.99 0 1.98 0 3 0 C3.13155701 8.51117818 3.2620231 17.02237212 3.39115143 25.53358746 C3.45116392 29.48699947 3.51153197 33.44040534 3.57275391 37.39379883 C3.63198185 41.21932006 3.69022188 45.04485525 3.74781799 48.87040138 C3.76979937 50.31940038 3.79211824 51.7683943 3.81480408 53.21738243 C3.93988442 61.22186129 4.02112974 69.22221389 3.96496582 77.2278595 C4.03665227 82.90017511 4.75074235 88.46757328 6 94 C6.66 94 7.32 94 8 94 C8 94.99 8 95.98 8 97 C8.99 97.33 9.98 97.66 11 98 C10.01 98.99 10.01 98.99 9 100 C1.60844228 91.6358689 0.88030025 83.49614974 0.79467773 72.65625 C0.78477814 71.86504257 0.77487854 71.07383514 0.76467896 70.25865173 C0.73337297 67.67246376 0.70843029 65.08625749 0.68359375 62.5 C0.66299745 60.69538933 0.64200032 58.8907832 0.62062073 57.08618164 C0.56567622 52.35821221 0.51614623 47.63020126 0.46777344 42.90216064 C0.41735552 38.06885117 0.36177583 33.2356013 0.30664062 28.40234375 C0.19939739 18.93494686 0.09787863 9.46749801 0 0 Z " fill="#CB5D5E" transform="translate(237,430)"/>
<path d="M0 0 C4.50040297 0.62074524 5.81383572 2.0273853 8.625 5.5 C9.89872457 8.04744915 9.76585969 9.86038036 9.78613281 12.71240234 C9.79574036 13.80048187 9.8053479 14.8885614 9.81524658 16.00961304 C9.81949646 17.18980011 9.82374634 18.36998718 9.828125 19.5859375 C9.83382507 20.79440338 9.83952515 22.00286926 9.84539795 23.24795532 C9.85485775 25.80852378 9.8613858 28.36910446 9.86523438 30.9296875 C9.87494252 34.85177794 9.90595867 38.77334509 9.9375 42.6953125 C9.94402955 45.17968438 9.94928021 47.66406002 9.953125 50.1484375 C9.9654718 51.32457611 9.9778186 52.50071472 9.99053955 53.7124939 C9.98753845 54.80687775 9.98453735 55.9012616 9.98144531 57.02880859 C9.98509094 57.99096283 9.98873657 58.95311707 9.99249268 59.94442749 C9.625 62.5 9.625 62.5 6.625 66.5 C6.295 46.04 5.965 25.58 5.625 4.5 C4.635 4.5 3.645 4.5 2.625 4.5 C2.625 3.84 2.625 3.18 2.625 2.5 C-1.83 2.995 -1.83 2.995 -6.375 3.5 C-3.375 0.5 -3.375 0.5 0 0 Z " fill="#CF7575" transform="translate(234.375,80.5)"/>
<path d="M0 0 C0.99 0 1.98 0 3 0 C2.67468292 0.71105392 2.34936584 1.42210785 2.01419067 2.15470886 C0.94154621 5.16399091 0.75804999 7.34367308 0.77294922 10.5246582 C0.77310028 11.60540115 0.77325134 12.6861441 0.77340698 13.79963684 C0.78372955 14.9550145 0.79405212 16.11039215 0.8046875 17.30078125 C0.80893234 19.08804878 0.80893234 19.08804878 0.81326294 20.91142273 C0.82444567 24.71188456 0.8495472 28.51210956 0.875 32.3125 C0.88503225 34.89127263 0.89415767 37.47004897 0.90234375 40.04882812 C0.9243788 46.36596603 0.95783768 52.68296609 1 59 C1.66 59.33 2.32 59.66 3 60 C3 60.99 3 61.98 3 63 C5.97 63 8.94 63 12 63 C12.33 62.34 12.66 61.68 13 61 C13.33 61.99 13.66 62.98 14 64 C11.27387255 65.85376666 9.86376511 65.99513447 6.5 65.875 C2.70263089 64.92565772 1.38528498 64.02747709 -1 61 C-2.2751927 58.4496146 -2.13393321 56.64284318 -2.14526367 53.78759766 C-2.15164352 52.69951813 -2.15802338 51.6114386 -2.16459656 50.49038696 C-2.16570938 49.31019989 -2.1668222 48.13001282 -2.16796875 46.9140625 C-2.17129715 45.70559662 -2.17462555 44.49713074 -2.17805481 43.25204468 C-2.18312552 40.69147117 -2.18546309 38.13089103 -2.18530273 35.5703125 C-2.18748701 31.64832681 -2.20563545 27.72662329 -2.22460938 23.8046875 C-2.22754367 21.32031347 -2.22952822 18.83593809 -2.23046875 16.3515625 C-2.23765427 15.17542389 -2.24483978 13.99928528 -2.25224304 12.7875061 C-2.24916641 11.69312225 -2.24608978 10.5987384 -2.24291992 9.47119141 C-2.24434494 8.50903717 -2.24576996 7.54688293 -2.24723816 6.55557251 C-1.99110513 3.90805834 -1.34821819 2.26987629 0 0 Z " fill="#DB9293" transform="translate(227,0)"/>
<path d="M0 0 C4.63720955 6.95581433 3.25167367 17.25684201 3.29516602 25.37304688 C3.3067503 26.87802483 3.32730262 28.3829597 3.35668945 29.88769531 C3.3994456 32.08426252 3.41553486 34.27963059 3.42578125 36.4765625 C3.44036377 37.77674316 3.45494629 39.07692383 3.4699707 40.41650391 C2.84608493 45.17359244 0.93728165 48.37909768 -2.74609375 51.4609375 C-6.3113464 53.38765602 -8.93580669 54.49262949 -13 54 C-12.67 53.34 -12.34 52.68 -12 52 C-11.01 52 -10.02 52 -9 52 C-8.67 51.01 -8.34 50.02 -8 49 C-6.68 49 -5.36 49 -4 49 C-4 48.34 -4 47.68 -4 47 C-2.515 46.505 -2.515 46.505 -1 46 C-0.67 30.82 -0.34 15.64 0 0 Z " fill="#CE6667" transform="translate(295,376)"/>
<path d="M0 0 C2.69108582 1.66802979 2.69108582 1.66802979 5 4 C5.60127258 6.6449585 5.60127258 6.6449585 5.56762695 9.68652344 C5.5672493 10.82740417 5.56687164 11.96828491 5.56648254 13.14373779 C5.54067612 14.36989807 5.51486969 15.59605835 5.48828125 16.859375 C5.48120651 18.11888977 5.47413177 19.37840454 5.46684265 20.67608643 C5.44359876 24.01735356 5.39871812 27.35690324 5.34332275 30.69769287 C5.29208209 34.10950916 5.26931856 37.5215032 5.24414062 40.93359375 C5.1889944 47.62286982 5.10530735 54.31133577 5 61 C4.34 61 3.68 61 3 61 C3 42.52 3 24.04 3 5 C-2.99003998 4.30030276 -2.99003998 4.30030276 -9 4 C-9.33 4.99 -9.66 5.98 -10 7 C-10.66 6.67 -11.32 6.34 -12 6 C-9.46532142 0.15074175 -6.15786632 -0.63702065 0 0 Z " fill="#B84545" transform="translate(238,165)"/>
<path d="M0 0 C1.98 0 3.96 0 6 0 C6 0.66 6 1.32 6 2 C6.969375 1.979375 7.93875 1.95875 8.9375 1.9375 C12 2 12 2 13 3 C13.09511266 5.64738089 13.12555635 8.26859001 13.11352539 10.91625977 C13.11367142 11.74545929 13.11381744 12.57465881 13.1139679 13.4289856 C13.11326851 16.18315198 13.10547493 18.93725161 13.09765625 21.69140625 C13.09579216 23.59569766 13.09436822 25.49998955 13.09336853 27.40428162 C13.08954263 32.42667963 13.07971173 37.44904892 13.06866455 42.47143555 C13.05845198 47.5922812 13.05387124 52.71313148 13.04882812 57.83398438 C13.03808953 67.88933557 13.02101224 77.9446654 13 88 C12.67 88 12.34 88 12 88 C11.67 60.61 11.34 33.22 11 5 C8.03 4.01 5.06 3.02 2 2 C1.34 1.34 0.68 0.68 0 0 Z " fill="#D07777" transform="translate(176,426)"/>
<path d="M0 0 C2.4375 2.125 2.4375 2.125 4 4 C4 4.66 4 5.32 4 6 C4.66 6 5.32 6 6 6 C6.66 7.98 7.32 9.96 8 12 C6 10.625 6 10.625 4 9 C4 8.34 4 7.68 4 7 C2.576875 6.6596875 2.576875 6.6596875 1.125 6.3125 C-0.421875 5.6628125 -0.421875 5.6628125 -2 5 C-2.66666667 3.33333333 -3.33333333 1.66666667 -4 0 C-7.02982306 -1.37189827 -7.02982306 -1.37189827 -10 -2 C-10 -2.66 -10 -3.32 -10 -4 C-12.54250021 -3.88525534 -15.08347338 -3.7585303 -17.625 -3.625 C-18.33785156 -3.5940625 -19.05070312 -3.563125 -19.78515625 -3.53125 C-24.19449254 -3.28853424 -27.80925522 -2.49669456 -32 -1 C-34.375 -1.375 -34.375 -1.375 -36 -2 C-24.20354328 -8.45996439 -11.0701869 -7.23819913 0 0 Z " fill="#D17678" transform="translate(254,255)"/>
<path d="M0 0 C0.74426239 -0.0033284 1.48852478 -0.0066568 2.25534058 -0.01008606 C3.82370385 -0.01513627 5.39207782 -0.01749498 6.96044922 -0.01733398 C9.36573739 -0.01952993 11.77057359 -0.03773099 14.17578125 -0.05664062 C15.70051926 -0.05957301 17.22525946 -0.06155884 18.75 -0.0625 C19.47083771 -0.06968552 20.19167542 -0.07687103 20.93435669 -0.08427429 C26.01334942 -0.06086933 26.01334942 -0.06086933 28.2421875 2.16796875 C27.39100342 2.1522583 26.53981934 2.13654785 25.6628418 2.12036133 C22.45160243 2.06869724 19.24057753 2.03136158 16.02905273 2.00317383 C14.64909824 1.98824933 13.26918978 1.96790214 11.8894043 1.94165039 C1.63394303 1.75166546 -9.15647241 1.78632933 -17.7578125 8.16796875 C-18.4178125 8.82796875 -19.0778125 9.48796875 -19.7578125 10.16796875 C-19.7578125 8.51796875 -19.7578125 6.86796875 -19.7578125 5.16796875 C-18.51045683 4.51704285 -17.25979418 3.87245206 -16.0078125 3.23046875 C-15.31171875 2.87082031 -14.615625 2.51117188 -13.8984375 2.140625 C-9.32393558 0.06206482 -4.96673469 0.00771091 0 0 Z " fill="#C66264" transform="translate(224.7578125,319.83203125)"/>
<path d="M0 0 C0.66 0.33 1.32 0.66 2 1 C1.09909264 7.55012644 0.24339482 13.16188932 -3 19 C-4.08487344 21.97353946 -5.05367204 24.97980437 -6 28 C-6.66 28 -7.32 28 -8 28 C-6.43618819 18.3043668 -3.20450331 9.25073597 0 0 Z " fill="#CD686C" transform="translate(141,57)"/>
<path d="M0 0 C2.31340868 2.31340868 2.7192364 3.80196587 3.65625 6.91015625 C3.95660156 7.90080078 4.25695312 8.89144531 4.56640625 9.91210938 C5.02853516 11.47155273 5.02853516 11.47155273 5.5 13.0625 C5.80808594 14.07505859 6.11617188 15.08761719 6.43359375 16.13085938 C8.21171566 22.04902907 9.74092941 27.95016582 11 34 C10.01 34.495 10.01 34.495 9 35 C8.72285156 34.07316406 8.44570313 33.14632812 8.16015625 32.19140625 C7.79792969 30.99386719 7.43570312 29.79632813 7.0625 28.5625 C6.52302734 26.77005859 6.52302734 26.77005859 5.97265625 24.94140625 C5.29110858 22.14132455 5.29110858 22.14132455 4 21 C3.74255836 19.0048273 3.48800166 17.00887323 3.28125 15.0078125 C3.0337405 12.79861215 3.0337405 12.79861215 2 10 C1.34 9.67 0.68 9.34 0 9 C0 6.03 0 3.06 0 0 Z " fill="#C55C5F" transform="translate(451,466)"/>
<path d="M0 0 C0.66 0.33 1.32 0.66 2 1 C0.72977021 8.03264333 -1.01216318 14.80124472 -3.125 21.625 C-3.40214844 22.53378906 -3.67929688 23.44257813 -3.96484375 24.37890625 C-4.63897877 26.58727959 -5.31739977 28.79423163 -6 31 C-6.33 31 -6.66 31 -7 31 C-7.40850553 23.91923749 -5.90420731 17.80074041 -4 11 C-3.34 11 -2.68 11 -2 11 C-2.061875 9.6696875 -2.061875 9.6696875 -2.125 8.3125 C-2.00102754 5.02722987 -1.38612096 2.94550705 0 0 Z " fill="#CD7073" transform="translate(81,309)"/>
<path d="M0 0 C0.33 0 0.66 0 1 0 C1.03758423 0.92897095 1.03758423 0.92897095 1.07592773 1.87670898 C1.19322658 4.73044888 1.31533586 7.58396441 1.4375 10.4375 C1.47681641 11.41138672 1.51613281 12.38527344 1.55664062 13.38867188 C1.88703824 20.98781692 2.32020305 28.56089923 4 36 C4.66 36 5.32 36 6 36 C6 36.99 6 37.98 6 39 C6.99 39.33 7.98 39.66 9 40 C8.34 40.66 7.68 41.32 7 42 C-1.46377235 32.42257339 -1.27177531 22.75606322 -0.5625 10.4375 C-0.51029297 9.42880859 -0.45808594 8.42011719 -0.40429688 7.38085938 C-0.27601349 4.92015084 -0.14112915 2.45999946 0 0 Z " fill="#C34545" transform="translate(239,488)"/>
<path d="M0 0 C0.33 0 0.66 0 1 0 C1.22151549 1.79008467 1.42682213 3.58218162 1.625 5.375 C1.74101563 6.37273437 1.85703125 7.37046875 1.9765625 8.3984375 C1.98429687 9.25695312 1.99203125 10.11546875 2 11 C1.34 11.66 0.68 12.32 0 13 C-1.81500351 16.17625614 -2.89357499 19.52266426 -4 23 C-4.66 23 -5.32 23 -6 23 C-6 24.65 -6 26.3 -6 28 C-6.66 28.33 -7.32 28.66 -8 29 C-6.60900162 22.36237179 -4.86285116 15.91941658 -2.875 9.4375 C-2.59785156 8.52419922 -2.32070312 7.61089844 -2.03515625 6.66992188 C-1.35973591 4.44569283 -0.68131033 2.22243047 0 0 Z " fill="#CC7474" transform="translate(90,224)"/>
<path d="M0 0 C0.66 0.33 1.32 0.66 2 1 C2.07409401 4.95092059 2.12857406 8.90157294 2.16479492 12.85302734 C2.18732251 14.85919374 2.2254357 16.86516526 2.26367188 18.87109375 C2.27333984 20.12792969 2.28300781 21.38476562 2.29296875 22.6796875 C2.3086792 23.84226074 2.32438965 25.00483398 2.34057617 26.20263672 C2.22818604 27.1257666 2.1157959 28.04889648 2 29 C1.01 29.66 0.02 30.32 -1 31 C-1.02902168 26.58334712 -1.04680608 22.16671877 -1.0625 17.75 C-1.07087891 16.49574219 -1.07925781 15.24148438 -1.08789062 13.94921875 C-1.09111328 12.74394531 -1.09433594 11.53867187 -1.09765625 10.296875 C-1.10289307 9.18666992 -1.10812988 8.07646484 -1.11352539 6.93261719 C-1.01658493 4.42842621 -0.73230276 2.3818844 0 0 Z " fill="#BC4544" transform="translate(252,383)"/>
<path d="M0 0 C0.66 0.33 1.32 0.66 2 1 C3.85581689 8.31968708 1.89457956 13.98180199 -0.4375 21 C-0.77587891 22.06089844 -1.11425781 23.12179688 -1.46289062 24.21484375 C-2.29442332 26.8148474 -3.14032872 29.40919238 -4 32 C-4.33 32 -4.66 32 -5 32 C-5.25 24.375 -5.25 24.375 -3 21 C-2.3734716 19.02119189 -2.3734716 19.02119189 -1.9375 16.9375 C-1.44398841 14.74728742 -1.00743074 13.01486148 0 11 C0.07033769 9.12620395 0.0843022 7.24998898 0.0625 5.375 C0.04896484 3.87066406 0.04896484 3.87066406 0.03515625 2.3359375 C0.02355469 1.56507812 0.01195312 0.79421875 0 0 Z " fill="#CD787B" transform="translate(172,0)"/>
<path d="M0 0 C0.99 0 1.98 0 3 0 C3 1.65 3 3.3 3 5 C3.66 5 4.32 5 5 5 C5 5.66 5 6.32 5 7 C6.98 7.66 8.96 8.32 11 9 C10 11 10 11 8.0625 11.9375 C5.68028507 12.95345922 5.68028507 12.95345922 4 16 C3.32815382 13.89748139 2.66269032 11.79292237 2 9.6875 C1.443125 7.92986328 1.443125 7.92986328 0.875 6.13671875 C0 3 0 3 0 0 Z " fill="#E59494" transform="translate(442,495)"/>
<path d="M0 0 C2.375 0.5625 2.375 0.5625 5 2 C6.83903951 6.43041337 7.20819804 9.40884743 6 14 C5.9629721 15.6662553 5.95240038 17.33401319 6 19 C3.29259338 16.29259338 2.8989446 13.7373234 1.875 10.0625 C1.52179688 8.81597656 1.16859375 7.56945312 0.8046875 6.28515625 C0 3 0 3 0 0 Z " fill="#CE5A5D" transform="translate(417,412)"/>
<path d="M0 0 C0.33 0 0.66 0 1 0 C1 6.6 1 13.2 1 20 C1.66 20 2.32 20 3 20 C3.66 21.98 4.32 23.96 5 26 C4.34 26.66 3.68 27.32 3 28 C-1.90702471 19.56605129 -1.6285549 11.49014854 -1 2 C-0.67 1.34 -0.34 0.68 0 0 Z " fill="#C46263" transform="translate(206,268)"/>
<path d="M0 0 C0.99 0.33 1.98 0.66 3 1 C3.94921875 3.6171875 3.94921875 3.6171875 4.6875 6.875 C5.06455078 8.47988281 5.06455078 8.47988281 5.44921875 10.1171875 C6 13 6 13 6 16 C6.66 16 7.32 16 8 16 C9.25 22.625 9.25 22.625 7 26 C5.82898756 22.04293896 4.66392728 18.08415032 3.5 14.125 C3.16613281 12.99707031 2.83226562 11.86914062 2.48828125 10.70703125 C2.17246094 9.63066406 1.85664063 8.55429687 1.53125 7.4453125 C1.23798828 6.45031738 0.94472656 5.45532227 0.64257812 4.43017578 C0 2 0 2 0 0 Z " fill="#D0686E" transform="translate(300,27)"/>
<path d="M0 0 C2.13040644 3.83073083 3.37310852 7.90213268 4.6875 12.0625 C4.92533203 12.78244141 5.16316406 13.50238281 5.40820312 14.24414062 C7.11827753 19.64516741 7.11827753 19.64516741 6 23 C6 22.34 6 21.68 6 21 C5.01 21 4.02 21 3 21 C1.90341064 17.71023192 2.20046862 16.28696233 3 13 C2.34 13 1.68 13 1 13 C1 11.02 1 9.04 1 7 C0.34 7 -0.32 7 -1 7 C-0.67 4.69 -0.34 2.38 0 0 Z " fill="#CE6663" transform="translate(390,263)"/>
<path d="M0 0 C2.9375 2 2.9375 2 5 4 C4.67 4.66 4.34 5.32 4 6 C3.34 5.67 2.68 5.34 2 5 C-1.86061033 3.71312989 -4.94150283 3.86242382 -9 4 C-9.33 4.99 -9.66 5.98 -10 7 C-10.66 6.67 -11.32 6.34 -12 6 C-9.46532142 0.15074175 -6.15786632 -0.63702065 0 0 Z " fill="#CB7072" transform="translate(238,165)"/>
<path d="M0 0 C0.33 0 0.66 0 1 0 C1 2.64 1 5.28 1 8 C0.34 8 -0.32 8 -1 8 C-0.938125 9.03125 -0.87625 10.0625 -0.8125 11.125 C-1.01135595 15.23468973 -1.94467803 17.48882496 -4 21 C-4.66 21 -5.32 21 -6 21 C-4.78880323 13.65313537 -2.71328887 6.92810652 0 0 Z " fill="#CA6065" transform="translate(72,285)"/>
<path d="M0 0 C0.66 0 1.32 0 2 0 C3.13292996 6.91506879 2.92582433 13.51749095 2.5625 20.5 C2.51029297 21.60859375 2.45808594 22.7171875 2.40429688 23.859375 C2.27562072 26.57327203 2.14070594 29.28670458 2 32 C1.67 32 1.34 32 1 32 C-0.19148936 10.46808511 -0.19148936 10.46808511 0 0 Z " fill="#DF8588" transform="translate(188,362)"/>
<path d="M0 0 C7.21924439 0.16407374 13.3293253 3.67991186 19 8 C19.8515625 10.23046875 19.8515625 10.23046875 20 12 C17.125 11.3125 17.125 11.3125 14 10 C12.625 7.375 12.625 7.375 12 5 C10.35 5 8.7 5 7 5 C6.67 4.01 6.34 3.02 6 2 C3.69 2 1.38 2 -1 2 C-0.67 1.34 -0.34 0.68 0 0 Z " fill="#C75F5F" transform="translate(252,305)"/>
<path d="M0 0 C0.33 0.66 0.66 1.32 1 2 C1.66 2 2.32 2 3 2 C3 3.98 3 5.96 3 8 C4.32 8 5.64 8 7 8 C7.33 8.99 7.66 9.98 8 11 C7.34 11 6.68 11 6 11 C6.165 11.495 6.33 11.99 6.5 12.5 C7.20688818 16.03444089 7.06005155 19.39690701 7 23 C4.86998146 19.18786401 3.66010088 15.08792756 2.375 10.9375 C2.14554687 10.21755859 1.91609375 9.49761719 1.6796875 8.75585938 C0.7372679 5.73506798 0 3.18325133 0 0 Z " fill="#CF646A" transform="translate(406,376)"/>
<path d="M0 0 C0.99 0 1.98 0 3 0 C3 0.66 3 1.32 3 2 C3.66 2.33 4.32 2.66 5 3 C4.67 3.66 4.34 4.32 4 5 C4.66 5.33 5.32 5.66 6 6 C6 9.3 6 12.6 6 16 C5.34 16 4.68 16 4 16 C3.32815382 13.89748139 2.66269032 11.79292237 2 9.6875 C1.443125 7.92986328 1.443125 7.92986328 0.875 6.13671875 C0 3 0 3 0 0 Z " fill="#CD5A5E" transform="translate(361,228)"/>
<path d="M0 0 C0.66 0 1.32 0 2 0 C0.64746536 6.45054982 -1.03060233 12.71105679 -3 19 C-3.33 19 -3.66 19 -4 19 C-4.02715383 17.25008666 -4.04646551 15.50005055 -4.0625 13.75 C-4.07410156 12.77546875 -4.08570313 11.8009375 -4.09765625 10.796875 C-4.01195577 8.34241322 -3.70706066 6.33831086 -3 4 C-2.01 4 -1.02 4 0 4 C0 2.68 0 1.36 0 0 Z " fill="#CE6C6C" transform="translate(135,132)"/>
<path d="M0 0 C2.31 0 4.62 0 7 0 C7.66 1.98 8.32 3.96 9 6 C7.02 6.99 7.02 6.99 5 8 C4.01 6.68 3.02 5.36 2 4 C1.01 4.99 0.02 5.98 -1 7 C-0.7525 6.1028125 -0.7525 6.1028125 -0.5 5.1875 C0.1114124 2.88655664 0.1114124 2.88655664 0 0 Z " fill="#D54042" transform="translate(298,0)"/>
<path d="M0 0 C0.33 0 0.66 0 1 0 C2.03480605 3.4334517 3.05040959 6.87229026 4.0625 10.3125 C4.35705078 11.28896484 4.65160156 12.26542969 4.95507812 13.27148438 C5.22900391 14.20927734 5.50292969 15.14707031 5.78515625 16.11328125 C6.17006226 17.40939331 6.17006226 17.40939331 6.56274414 18.73168945 C7 21 7 21 6 24 C5.34 24 4.68 24 4 24 C3.87882812 23.35933594 3.75765625 22.71867187 3.6328125 22.05859375 C2.86016216 18.07052932 2.06178178 14.20250696 0.875 10.3125 C-0.06624763 6.7492054 -0.14976176 3.66916324 0 0 Z " fill="#CB676A" transform="translate(403,306)"/>
<path d="M0 0 C2.54974317 4.17317515 1.7576017 6.74628224 0.70703125 11.328125 C-0.67961244 16.56825915 -1.9773994 21.46609909 -5 26 C-5.28507734 20.6785564 -4.8554985 17.05253671 -2.80078125 12.1640625 C-1.34799323 8.23799146 -0.7165073 4.11359483 0 0 Z " fill="#CC6D6E" transform="translate(43,432)"/>
<path d="M0 0 C0 0.33 0 0.66 0 1 C-1.08539063 1.04898438 -2.17078125 1.09796875 -3.2890625 1.1484375 C-4.73439784 1.22351986 -6.17970919 1.29906528 -7.625 1.375 C-8.33785156 1.4059375 -9.05070312 1.436875 -9.78515625 1.46875 C-14.19449254 1.71146576 -17.80925522 2.50330544 -22 4 C-24.375 3.625 -24.375 3.625 -26 3 C-17.9386968 -1.41452318 -8.93139116 -2.30487514 0 0 Z " fill="#C55F63" transform="translate(244,250)"/>
<path d="M0 0 C0.33 0 0.66 0 1 0 C1 2.97 1 5.94 1 9 C0.34 9 -0.32 9 -1 9 C-1.06058594 9.67546875 -1.12117188 10.3509375 -1.18359375 11.046875 C-1.26738281 11.93890625 -1.35117188 12.8309375 -1.4375 13.75 C-1.51871094 14.63171875 -1.59992188 15.5134375 -1.68359375 16.421875 C-1.96238465 18.69350452 -2.38790577 20.79851823 -3 23 C-3.99 23 -4.98 23 -6 23 C-4.64741104 15.11583017 -2.45600648 7.60646666 0 0 Z " fill="#D07173" transform="translate(112,151)"/>
<path d="M0 0 C1.65 0 3.3 0 5 0 C6.81242323 4.0188515 8.33501617 7.61110675 9 12 C8.01 11.67 7.02 11.34 6 11 C6 9.68 6 8.36 6 7 C5.38125 6.95875 4.7625 6.9175 4.125 6.875 C3.42375 6.58625 2.7225 6.2975 2 6 C0.75 2.9375 0.75 2.9375 0 0 Z " fill="#CD5C5E" transform="translate(305,0)"/>
<path d="M0 0 C0.66 0 1.32 0 2 0 C1.48188555 6.90819264 -2.0454296 12.32068351 -7 17 C-7.66 16.67 -8.32 16.34 -9 16 C-8.67 14.68 -8.34 13.36 -8 12 C-7.01 12 -6.02 12 -5 12 C-4.67 11.01 -4.34 10.02 -4 9 C-3.34 9 -2.68 9 -2 9 C-1.34 6.03 -0.68 3.06 0 0 Z " fill="#CD696A" transform="translate(228,515)"/>
<path d="M0 0 C0.33 0 0.66 0 1 0 C0.35346673 6.95023264 -1.86027248 13.38177303 -4 20 C-4.33 20 -4.66 20 -5 20 C-5.05429959 18.25034642 -5.09292823 16.50020213 -5.125 14.75 C-5.15980469 13.28820312 -5.15980469 13.28820312 -5.1953125 11.796875 C-4.99862781 8.9803502 -4.44568916 7.39050964 -3 5 C-2.34 5 -1.68 5 -1 5 C-0.67 3.35 -0.34 1.7 0 0 Z " fill="#CB6368" transform="translate(56,395)"/>
<path d="M0 0 C3.16115776 1.36983503 3.9927092 1.9890638 6 5 C5.625 8.6875 5.625 8.6875 5 12 C4.01 12 3.02 12 2 12 C0.70756464 7.8803623 -0.26252625 4.33168317 0 0 Z " fill="#CE5758" transform="translate(392,328)"/>
<path d="M0 0 C0.99 0.66 1.98 1.32 3 2 C2.67 2.66 2.34 3.32 2 4 C-1.63 3.67 -5.26 3.34 -9 3 C-9 3.66 -9 4.32 -9 5 C-10.32 4.67 -11.64 4.34 -13 4 C-8.67440818 -0.6239085 -6.21178708 -1.42353454 0 0 Z " fill="#C97374" transform="translate(214,379)"/>
<path d="M0 0 C0.99 0.99 1.98 1.98 3 3 C2 5 2 5 0 6 C-0.33 6.66 -0.66 7.32 -1 8 C-1.99 8 -2.98 8 -4 8 C-4 8.66 -4 9.32 -4 10 C-6.64 10 -9.28 10 -12 10 C-9.06279492 8.47700477 -6.0831351 7.19899698 -3 6 C-3.99 5.01 -4.98 4.02 -6 3 C-3.92446352 2.4465236 -2.15634036 2 0 2 C0 1.34 0 0.68 0 0 Z " fill="#D8706C" transform="translate(219,297)"/>
<path d="M0 0 C2.84454993 2.84454993 3.30824038 6.20643307 4.25 10 C4.44851563 10.73734375 4.64703125 11.4746875 4.8515625 12.234375 C5.33010556 14.13467642 5.6751376 16.06748523 6 18 C5.34 18.66 4.68 19.32 4 20 C3.13521219 17.23208055 2.28288326 14.46134374 1.4375 11.6875 C1.0672168 10.50897461 1.0672168 10.50897461 0.68945312 9.30664062 C0.46064453 8.54931641 0.23183594 7.79199219 -0.00390625 7.01171875 C-0.21861572 6.31522217 -0.4333252 5.61872559 -0.65454102 4.90112305 C-1 3 -1 3 0 0 Z " fill="#C96264" transform="translate(397,288)"/>
<path d="M0 0 C0.66 0.33 1.32 0.66 2 1 C1.38357466 3.62728858 0.75732213 6.25153582 0.125 8.875 C-0.04902344 9.62136719 -0.22304687 10.36773437 -0.40234375 11.13671875 C-1.7734375 16.7734375 -1.7734375 16.7734375 -4 19 C-4.08252495 14.21355271 -4.14242743 9.68395246 -3 5 C-2.34 4.67 -1.68 4.34 -1 4 C-0.34786708 1.97536745 -0.34786708 1.97536745 0 0 Z " fill="#CC6B6D" transform="translate(102,241)"/>
<path d="M0 0 C0.66 0 1.32 0 2 0 C2.67321284 2.24805002 3.33834123 4.49852224 4 6.75 C4.556875 8.62945312 4.556875 8.62945312 5.125 10.546875 C6 14 6 14 6 18 C5.34 18 4.68 18 4 18 C4 16.68 4 15.36 4 14 C3.34 14 2.68 14 2 14 C1.855625 12.865625 1.71125 11.73125 1.5625 10.5625 C1.38828522 7.19222799 1.38828522 7.19222799 0 6 C-0.04080783 4.00041636 -0.04254356 1.99954746 0 0 Z " fill="#CA6B6E" transform="translate(355,151)"/>
<path d="M0 0 C1.32 0.33 2.64 0.66 4 1 C4 1.99 4 2.98 4 4 C6.97 4 9.94 4 13 4 C13.33 3.34 13.66 2.68 14 2 C14.33 2.99 14.66 3.98 15 5 C12.27387255 6.85376666 10.86376511 6.99513447 7.5 6.875 C3.72332911 5.93083228 2.32318133 5.06659935 0 2 C0 1.34 0 0.68 0 0 Z " fill="#CB696C" transform="translate(226,59)"/>
<path d="M0 0 C4.46440026 0.61577935 5.81065365 2.0886711 8.625 5.5 C7.965 6.82 7.305 8.14 6.625 9.5 C6.295 7.85 5.965 6.2 5.625 4.5 C4.635 4.5 3.645 4.5 2.625 4.5 C2.625 3.84 2.625 3.18 2.625 2.5 C-1.83 2.995 -1.83 2.995 -6.375 3.5 C-3.375 0.5 -3.375 0.5 0 0 Z " fill="#CC7476" transform="translate(234.375,80.5)"/>
<path d="M0 0 C0.66 0 1.32 0 2 0 C3.32094849 3.01931084 4.28850488 5.99258781 5.0625 9.1875 C5.79635875 12.77663239 5.79635875 12.77663239 7 15 C7.04022391 17.3329866 7.04320247 19.66706666 7 22 C4.98351818 18.31568041 3.69263097 14.40954452 2.375 10.4375 C2.14554687 9.76525391 1.91609375 9.09300781 1.6796875 8.40039062 C0.70441861 5.47748655 0 3.1026844 0 0 Z " fill="#D0797A" transform="translate(311,64)"/>
<path d="M0 0 C2.57498808 2.57498808 3.06266755 4.83827942 4.125 8.3125 C4.47820312 9.44300781 4.83140625 10.57351563 5.1953125 11.73828125 C5.91707403 14.66386802 6.16826562 17.01048079 6 20 C5.34 19.67 4.68 19.34 4 19 C3.22355888 16.51831839 2.54993629 14.08443349 1.9375 11.5625 C0.81643072 6.66018142 0.81643072 6.66018142 -1 2 C-0.67 1.34 -0.34 0.68 0 0 Z " fill="#C96567" transform="translate(463,505)"/>
<path d="M0 0 C1.31225809 3.93677426 0.3393954 5.7794262 -0.9375 9.6875 C-1.50791016 11.45673828 -1.50791016 11.45673828 -2.08984375 13.26171875 C-2.39019531 14.16535156 -2.69054687 15.06898438 -3 16 C-3.33 16 -3.66 16 -4 16 C-4.33 12.37 -4.66 8.74 -5 5 C-4.01 4.67 -3.02 4.34 -2 4 C-0.79117904 1.99983534 -0.79117904 1.99983534 0 0 Z " fill="#CF6F70" transform="translate(67,360)"/>
<path d="M0 0 C3 1 3 1 4.125 2.5625 C5.39539368 6.10145383 5.76074317 9.23170491 6 13 C5.01 14.485 5.01 14.485 4 16 C3.32815382 13.89748139 2.66269032 11.79292237 2 9.6875 C1.443125 7.92986328 1.443125 7.92986328 0.875 6.13671875 C0 3 0 3 0 0 Z " fill="#CB5F63" transform="translate(327,116)"/>
<path d="M0 0 C2 1.625 2 1.625 4 4 C4.25 7.25 4.25 7.25 4 10 C4.99 10.33 5.98 10.66 7 11 C6.34 12.98 5.68 14.96 5 17 C4.67 17 4.34 17 4 17 C3.32844651 14.73050898 2.6626037 12.4596039 2 10.1875 C1.443125 8.29064453 1.443125 8.29064453 0.875 6.35546875 C0 3 0 3 0 0 Z " fill="#C86063" transform="translate(343,168)"/>
<path d="M0 0 C0.66 0 1.32 0 2 0 C2 2.31 2 4.62 2 7 C1.34 7 0.68 7 0 7 C0.061875 7.928125 0.12375 8.85625 0.1875 9.8125 C0 13 0 13 -1.51171875 14.69921875 C-2.00285156 15.12847656 -2.49398437 15.55773438 -3 16 C-2.52013969 10.43109483 -1.70084819 5.32932432 0 0 Z " fill="#C3585A" transform="translate(153,16)"/>
<path d="M0 0 C0.66 0.33 1.32 0.66 2 1 C2 3.62834278 1.80210238 6.08186701 1.5 8.6875 C1.4071875 9.49574219 1.314375 10.30398438 1.21875 11.13671875 C1.1465625 11.75160156 1.074375 12.36648438 1 13 C0.34 13 -0.32 13 -1 13 C-1.22245393 11.39773045 -1.42746669 9.79303233 -1.625 8.1875 C-1.74101562 7.29417969 -1.85703125 6.40085937 -1.9765625 5.48046875 C-2 3 -2 3 0 0 Z " fill="#CB5E62" transform="translate(296,0)"/>
<path d="M0 0 C1.57145895 2.44828749 2.06462081 3.58513442 1.609375 6.5078125 C1.32578125 7.37148438 1.0421875 8.23515625 0.75 9.125 C0.47671875 9.99382813 0.2034375 10.86265625 -0.078125 11.7578125 C-1 14 -1 14 -3 16 C-2.67 11.71 -2.34 7.42 -2 3 C-1.34 3 -0.68 3 0 3 C0 2.01 0 1.02 0 0 Z " fill="#CD6165" transform="translate(18,516)"/>
<path d="M0 0 C0.99 1.485 0.99 1.485 2 3 C1.01 3 0.02 3 -1 3 C-1.33 2.01 -1.66 1.02 -2 0 C-2.54269531 0.2165625 -3.08539063 0.433125 -3.64453125 0.65625 C-4.35996094 0.9346875 -5.07539063 1.213125 -5.8125 1.5 C-6.87404297 1.91765625 -6.87404297 1.91765625 -7.95703125 2.34375 C-10 3 -10 3 -13 3 C-13 2.34 -13 1.68 -13 1 C-7.93905481 -1.6316915 -5.39387595 -2.75965746 0 0 Z " fill="#C97477" transform="translate(265,380)"/>
<path d="M0 0 C0.99 0 1.98 0 3 0 C2.01 3.96 1.02 7.92 0 12 C-0.33 11.34 -0.66 10.68 -1 10 C-1.99 10.33 -2.98 10.66 -4 11 C-4 9.68 -4 8.36 -4 7 C-3.01 6.67 -2.02 6.34 -1 6 C-0.67 4.02 -0.34 2.04 0 0 Z " fill="#CD585A" transform="translate(69,347)"/>
<path d="M0 0 C0.66 0 1.32 0 2 0 C1.35729017 5.9129304 -0.19003784 11.34244531 -2 17 C-2.33 17 -2.66 17 -3 17 C-2.67 12.05 -2.34 7.1 -2 2 C-1.34 2 -0.68 2 0 2 C0 1.34 0 0.68 0 0 Z " fill="#CD7072" transform="translate(93,270)"/>
<path d="M0 0 C0.33 0 0.66 0 1 0 C1.3690205 10.55808656 1.3690205 10.55808656 -1 15 C-1.99 15 -2.98 15 -4 15 C-3.52229477 13.06213915 -3.04278429 11.12472326 -2.5625 9.1875 C-2.29566406 8.10855469 -2.02882813 7.02960938 -1.75390625 5.91796875 C-1.23922588 3.9259157 -0.65062825 1.95188476 0 0 Z " fill="#D07376" transform="translate(96,204)"/>
<path d="M0 0 C1.31225809 3.93677426 0.3393954 5.7794262 -0.9375 9.6875 C-1.31777344 10.86699219 -1.69804688 12.04648438 -2.08984375 13.26171875 C-2.39019531 14.16535156 -2.69054687 15.06898438 -3 16 C-5.046875 12.28125 -5.046875 12.28125 -4.625 9.75 C-4.41875 9.1725 -4.2125 8.595 -4 8 C-4.66 7.67 -5.32 7.34 -6 7 C-5.34 7 -4.68 7 -4 7 C-3.67 6.01 -3.34 5.02 -3 4 C-2.34 4 -1.68 4 -1 4 C-0.67 2.68 -0.34 1.36 0 0 Z " fill="#D27070" transform="translate(121,182)"/>
<path d="M0 0 C1.44558008 2.77753377 2.65035413 5.54539908 3.6875 8.5 C3.95949219 9.2528125 4.23148437 10.005625 4.51171875 10.78125 C5.0519311 13.23597493 4.79774824 14.64423338 4 17 C3.67 15.68 3.34 14.36 3 13 C2.34 13 1.68 13 1 13 C0.63631108 11.39796533 0.28438048 9.79325797 -0.0625 8.1875 C-0.25972656 7.29417969 -0.45695312 6.40085937 -0.66015625 5.48046875 C-1 3 -1 3 0 0 Z " fill="#D07474" transform="translate(322,39)"/>
<path d="M0 0 C2.67550292 2.67550292 2.83209389 4.94879894 3.625 8.625 C3.88539063 9.81351563 4.14578125 11.00203125 4.4140625 12.2265625 C4.70410156 13.59941406 4.70410156 13.59941406 5 15 C4.01 15.495 4.01 15.495 3 16 C2.29954544 14.08802961 1.615081 12.17019565 0.9375 10.25 C0.55464844 9.18265625 0.17179687 8.1153125 -0.22265625 7.015625 C-0.98010011 4.07719958 -1.07151741 2.77651052 0 0 Z " fill="#C86062" transform="translate(350,133)"/>
<path d="M0 0 C0.33 0 0.66 0 1 0 C1.66 3.3 2.32 6.6 3 10 C3.66 10 4.32 10 5 10 C5 10.99 5 11.98 5 13 C5.99 13.33 6.98 13.66 8 14 C7.34 14.66 6.68 15.32 6 16 C0.1121673 9.33745247 0.1121673 9.33745247 -1 5 C-0.625 2.1875 -0.625 2.1875 0 0 Z " fill="#CA676A" transform="translate(240,514)"/>
<path d="M0 0 C1.5 1.125 1.5 1.125 3 3 C3.1875 6.1875 3.1875 6.1875 3 9 C1.35 9.33 -0.3 9.66 -2 10 C-1.54177532 6.53058454 -1.10868317 3.32604951 0 0 Z " fill="#D25F62" transform="translate(44,376)"/>
<path d="M0 0 C3 2 3 2 3.80078125 4.53125 C3.96964844 5.5109375 4.13851563 6.490625 4.3125 7.5 C4.49425781 8.4796875 4.67601562 9.459375 4.86328125 10.46875 C4.93095703 11.72171875 4.93095703 11.72171875 5 13 C4.34 13.66 3.68 14.32 3 15 C2.491217 13.44033782 1.99336531 11.87710759 1.5 10.3125 C1.2215625 9.44238281 0.943125 8.57226562 0.65625 7.67578125 C0.00149195 5.00608323 -0.11831495 2.73603316 0 0 Z " fill="#CC5F65" transform="translate(435,469)"/>
<path d="M0 0 C0.33 0 0.66 0 1 0 C2.72107623 7.66816143 2.72107623 7.66816143 0.953125 10.93359375 C-0.4375 12.5625 -0.4375 12.5625 -3 15 C-4.57156655 11.8568669 -3.11705576 9.634536 -2.0625 6.375 C-1.68222656 5.18648438 -1.30195313 3.99796875 -0.91015625 2.7734375 C-0.60980469 1.85820312 -0.30945313 0.94296875 0 0 Z " fill="#D06B6E" transform="translate(22,448)"/>
<path d="M0 0 C-0.7734375 0.37125 -0.7734375 0.37125 -1.5625 0.75 C-7.68651661 3.79448032 -7.68651661 3.79448032 -13 8 C-13 6.35 -13 4.7 -13 3 C-8.44573816 0.33409063 -5.26053037 -0.31563182 0 0 Z " fill="#CD6B70" transform="translate(218,322)"/>
<path d="M0 0 C1.927545 6.02870457 -0.47596251 12.41105984 -3 18 C-3.66 18 -4.32 18 -5 18 C-3.75971762 11.82777121 -2.10396411 5.93317878 0 0 Z " fill="#D17473" transform="translate(64,310)"/>
<path d="M0 0 C1.953125 0.7421875 1.953125 0.7421875 4 2 C4.83886169 4.67790463 4.81766414 7.1737941 5 10 C4.01 10.495 4.01 10.495 3 11 C2.34 10.67 1.68 10.34 1 10 C0.5859375 7.71484375 0.5859375 7.71484375 0.375 4.9375 C0.30023438 4.01839844 0.22546875 3.09929687 0.1484375 2.15234375 C0.09945313 1.44207031 0.05046875 0.73179687 0 0 Z " fill="#D93F3D" transform="translate(346,168)"/>
<path d="M0 0 C0.66 0.66 1.32 1.32 2 2 C1.69903201 6.13830989 1.32101984 8.51847024 -1 12 C-1.99 12.495 -1.99 12.495 -3 13 C-2.45144652 8.428721 -1.58255197 4.32564205 0 0 Z " fill="#CF696B" transform="translate(131,89)"/>
<path d="M0 0 C0.99 0 1.98 0 3 0 C2.01 3.63 1.02 7.26 0 11 C-3 7 -3 7 -3 4 C-2.34 3.67 -1.68 3.34 -1 3 C-0.67 2.01 -0.34 1.02 0 0 Z " fill="#D05B5E" transform="translate(157,57)"/>
<path d="M0 0 C2.94897721 2.74559948 5.26205705 5.34117274 7 9 C6.6875 11.3125 6.6875 11.3125 6 13 C5.67 12.01 5.34 11.02 5 10 C4.34 10 3.68 10 3 10 C0.96564469 6.27034861 0 4.33094958 0 0 Z " fill="#CA6768" transform="translate(278,322)"/>
<path d="M0 0 C1.44558008 2.77753377 2.65035413 5.54539908 3.6875 8.5 C3.95949219 9.2528125 4.23148437 10.005625 4.51171875 10.78125 C5.0519311 13.23597493 4.79774824 14.64423338 4 17 C4 16.01 4 15.02 4 14 C3.34 14 2.68 14 2 14 C0.4087311 9.126739 -0.21192221 5.19209404 0 0 Z " fill="#D47D80" transform="translate(426,382)"/>
<path d="M0 0 C2.36762941 2.36762941 2.58455766 3.70059833 3.25 6.9375 C3.44078125 7.81277344 3.6315625 8.68804687 3.828125 9.58984375 C4 12 4 12 2 15 C1.34 15 0.68 15 0 15 C0 10.05 0 5.1 0 0 Z " fill="#CF6668" transform="translate(314,14)"/>
<path d="M0 0 C0.99 0.66 1.98 1.32 3 2 C2.75 5.375 2.75 5.375 2 9 C-0.0625 10.4375 -0.0625 10.4375 -2 11 C-1 3.57142857 -1 3.57142857 0 0 Z " fill="#D25F63" transform="translate(146,39)"/>
<path d="M0 0 C0.66 0.33 1.32 0.66 2 1 C0.515 7.435 0.515 7.435 -1 14 C-1.33 14 -1.66 14 -2 14 C-2 10.37 -2 6.74 -2 3 C-1.34 3 -0.68 3 0 3 C0 2.01 0 1.02 0 0 Z " fill="#D17276" transform="translate(29,481)"/>
<path d="M0 0 C2.57146057 2.57146057 2.80117997 4.6050417 3.625 8.125 C3.88539063 9.22070312 4.14578125 10.31640625 4.4140625 11.4453125 C4.70410156 12.70988281 4.70410156 12.70988281 5 14 C4.01 13.34 3.02 12.68 2 12 C2 11.34 2 10.68 2 10 C1.34 9.67 0.68 9.34 0 9 C0 6.03 0 3.06 0 0 Z " fill="#D26D73" transform="translate(451,466)"/>
<path d="M0 0 C0.33 0 0.66 0 1 0 C1.22151549 1.79008467 1.42682213 3.58218162 1.625 5.375 C1.74101563 6.37273437 1.85703125 7.37046875 1.9765625 8.3984375 C1.98429687 9.25695312 1.99203125 10.11546875 2 11 C1.34 11.66 0.68 12.32 0 13 C-0.66 12.67 -1.32 12.34 -2 12 C-2.21278058 7.53160785 -1.59138085 4.17737474 0 0 Z " fill="#CE5D5F" transform="translate(90,224)"/>
<path d="M0 0 C0.66 0 1.32 0 2 0 C2.66 3.3 3.32 6.6 4 10 C3.01 10.495 3.01 10.495 2 11 C2 10.01 2 9.02 2 8 C1.34 8 0.68 8 0 8 C-1.09658936 4.71023192 -0.79953138 3.28696233 0 0 Z " fill="#CB6364" transform="translate(361,171)"/>
<path d="M0 0 C0.99 0 1.98 0 3 0 C3.66 2.31 4.32 4.62 5 7 C3.68 7.33 2.36 7.66 1 8 C-1.125 3.375 -1.125 3.375 0 0 Z " fill="#D1595A" transform="translate(227,140)"/>
<path d="M0 0 C3 1 3 1 4.1875 3.1875 C5.07334979 6.25390311 5.14770318 8.82438155 5 12 C4.34 12 3.68 12 3 12 C2.01 8.04 1.02 4.08 0 0 Z " fill="#CE7375" transform="translate(332,133)"/>
<path d="M0 0 C0.33 0 0.66 0 1 0 C1.08333357 4.8333472 0.95261487 9.23692563 0 14 C-2 13 -2 13 -2.71484375 11.234375 C-3.06480491 8.49221359 -2.51211064 6.83294095 -1.5625 4.25 C-1.27503906 3.45078125 -0.98757812 2.6515625 -0.69140625 1.828125 C-0.46324219 1.22484375 -0.23507813 0.6215625 0 0 Z " fill="#D07073" transform="translate(127,102)"/>
<path d="M0 0 C1.98 0 3.96 0 6 0 C6 0.66 6 1.32 6 2 C7.98 2 9.96 2 12 2 C12.33 2.66 12.66 3.32 13 4 C7.73946963 4.31563182 4.55426184 3.66590937 0 1 C0 0.67 0 0.34 0 0 Z " fill="#C85D5F" transform="translate(176,426)"/>
<path d="M0 0 C1.32 0.33 2.64 0.66 4 1 C4 4.63 4 8.26 4 12 C1.57869669 9.57869669 1.47159496 8.19888623 0.875 4.875 C0.70742188 3.96492188 0.53984375 3.05484375 0.3671875 2.1171875 C0.24601562 1.41851562 0.12484375 0.71984375 0 0 Z " fill="#D47377" transform="translate(401,360)"/>
<path d="M0 0 C2.3129482 2.3129482 2.49580975 3.47904875 3.125 6.625 C3.29257812 7.44226562 3.46015625 8.25953125 3.6328125 9.1015625 C3.81457031 10.04128906 3.81457031 10.04128906 4 11 C3.01 11 2.02 11 1 11 C0.855625 10.360625 0.71125 9.72125 0.5625 9.0625 C0.18992819 7.02454854 0.18992819 7.02454854 -1 6 C-1.125 3.5 -1.125 3.5 -1 1 C-0.67 0.67 -0.34 0.34 0 0 Z " fill="#D06367" transform="translate(318,28)"/>
<path d="M0 0 C0.66 0 1.32 0 2 0 C2 1.98 2 3.96 2 6 C1.34 6 0.68 6 0 6 C-0.33 7.98 -0.66 9.96 -1 12 C-1.66 12 -2.32 12 -3 12 C-2.01 8.04 -1.02 4.08 0 0 Z " fill="#CC6063" transform="translate(3,511)"/>
<path d="M0 0 C0.33 0 0.66 0 1 0 C1.3152595 5.98993047 0.68219822 9.63560356 -2 15 C-2.66 15 -3.32 15 -4 15 C-3.69255859 14.00419922 -3.69255859 14.00419922 -3.37890625 12.98828125 C-3.10949219 12.10527344 -2.84007812 11.22226562 -2.5625 10.3125 C-2.29566406 9.44238281 -2.02882812 8.57226562 -1.75390625 7.67578125 C-1.03655471 5.12974079 -0.482459 2.5996577 0 0 Z " fill="#CF7474" transform="translate(40,388)"/>
<path d="M0 0 C2.42130331 2.42130331 2.52840504 3.80111377 3.125 7.125 C3.29257812 8.03507812 3.46015625 8.94515625 3.6328125 9.8828125 C3.81457031 10.93082031 3.81457031 10.93082031 4 12 C3.67 11.34 3.34 10.68 3 10 C2.01 10 1.02 10 0 10 C-1.231394 6.30581799 -0.64432764 3.7943739 0 0 Z " fill="#CF7072" transform="translate(393,274)"/>
<path d="M0 0 C1.21065165 3.63195496 0.62784815 5.06531629 -0.4375 8.6875 C-0.86869141 10.17830078 -0.86869141 10.17830078 -1.30859375 11.69921875 C-1.53675781 12.45847656 -1.76492187 13.21773437 -2 14 C-2.33 14 -2.66 14 -3 14 C-3.14285714 5.42857143 -3.14285714 5.42857143 -2 2 C-1.34 2 -0.68 2 0 2 C0 1.34 0 0.68 0 0 Z " fill="#D17678" transform="translate(23,504)"/>
<path d="M0 0 C4.97306516 0.49730652 8.63799813 1.55302334 13 4 C13 4.33 13 4.66 13 5 C11.02 5 9.04 5 7 5 C6.67 4.01 6.34 3.02 6 2 C3.69 2 1.38 2 -1 2 C-0.67 1.34 -0.34 0.68 0 0 Z " fill="#D07476" transform="translate(252,305)"/>
<path d="M0 0 C2.45823172 3.68734758 3.01242616 6.69699971 4 11 C3.01 11 2.02 11 1 11 C0.63743142 9.5437328 0.28520207 8.08488815 -0.0625 6.625 C-0.35833984 5.40683594 -0.35833984 5.40683594 -0.66015625 4.1640625 C-1 2 -1 2 0 0 Z " fill="#CF6D71" transform="translate(377,221)"/>
<path d="M0 0 C0.99 0.33 1.98 0.66 3 1 C4.48882438 5.07467725 5.26270217 8.66541415 5 13 C4.34 12.67 3.68 12.34 3 12 C2.1484375 9.27734375 2.1484375 9.27734375 1.375 5.9375 C0.98441406 4.28041016 0.98441406 4.28041016 0.5859375 2.58984375 C0.39257812 1.73519531 0.19921875 0.88054688 0 0 Z " fill="#C95B60" transform="translate(300,27)"/>
<path d="M0 0 C1.32 0.66 2.64 1.32 4 2 C2.35 4.64 0.7 7.28 -1 10 C-2.10191901 5.59232396 -1.58706842 4.1077065 0 0 Z " fill="#CF6269" transform="translate(200,330)"/>
<path d="M0 0 C1.5 1.375 1.5 1.375 3 3 C3 3.66 3 4.32 3 5 C5.475 5.99 5.475 5.99 8 7 C5.39417629 7.93065133 4.35801776 8.14917407 1.75 7.0625 C1.1725 6.711875 0.595 6.36125 0 6 C0 4.02 0 2.04 0 0 Z " fill="#CF676D" transform="translate(223,283)"/>
<path d="M0 0 C0.66 0.99 1.32 1.98 2 3 C1.01 4.98 0.02 6.96 -1 9 C-1.99 8.67 -2.98 8.34 -4 8 C-3.34 6.02 -2.68 4.04 -2 2 C-1.34 2 -0.68 2 0 2 C0 1.34 0 0.68 0 0 Z " fill="#D46E71" transform="translate(211,259)"/>
<path d="M0 0 C1.32 0 2.64 0 4 0 C3.44687265 4.02992782 2.8441938 8.02022924 2 12 C1.67 12 1.34 12 1 12 C0.67 8.04 0.34 4.08 0 0 Z " fill="#D0696B" transform="translate(152,68)"/>
<path d="M0 0 C0.66 0 1.32 0 2 0 C2.08004482 3.5219721 2.04005702 6.61981469 1 10 C0.01 10 -0.98 10 -2 10 C-1.34 6.7 -0.68 3.4 0 0 Z " fill="#CA6164" transform="translate(108,164)"/>
<path d="M0 0 C0.66 0.66 1.32 1.32 2 2 C1.64700993 5.44165321 0.95418308 7.06872538 -1 10 C-2.31223496 6.06329512 -1.24296256 3.87511856 0 0 Z " fill="#D0656B" transform="translate(7,498)"/>
<path d="M0 0 C2.12046792 3.53411321 2.53199289 6.94393835 3 11 C0.55178556 9.08400609 0.00675177 8.02756971 -0.75 4.9375 C-1 2 -1 2 0 0 Z " fill="#CA6A6B" transform="translate(448,455)"/>
<path d="M0 0 C0.33 0.66 0.66 1.32 1 2 C1.99 2.33 2.98 2.66 4 3 C4 3.33 4 3.66 4 4 C1.03 4 -1.94 4 -5 4 C-5 3.34 -5 2.68 -5 2 C-3.35 1.34 -1.7 0.68 0 0 Z " fill="#C94849" transform="translate(261,426)"/>
<path d="M0 0 C3.00617269 3.00617269 2.59585316 5.82381598 3 10 C2.01 10 1.02 10 0 10 C0 6.7 0 3.4 0 0 Z " fill="#CE6969" transform="translate(289,344)"/>
<path d="M0 0 C0 2.33333333 0 4.66666667 0 7 C-1.98 7.99 -1.98 7.99 -4 9 C-3.35455571 5.51460083 -1.89865603 2.97180943 0 0 Z " fill="#D57274" transform="translate(186,325)"/>
<path d="M0 0 C1.45823212 -0.0270043 2.91660675 -0.04639787 4.375 -0.0625 C5.18710938 -0.07410156 5.99921875 -0.08570313 6.8359375 -0.09765625 C9 0 9 0 11 1 C11 1.66 11 2.32 11 3 C11.66 3.33 12.32 3.66 13 4 C10 4 10 4 8.1875 3.0625 C5.49702226 1.75569653 2.94897515 1.40213297 0 1 C0 0.67 0 0.34 0 0 Z " fill="#D27174" transform="translate(232,266)"/>
<path d="M0 0 C1.15957207 3.47871621 0.77456651 4.34219645 -0.4375 7.6875 C-0.72496094 8.49574219 -1.01242188 9.30398437 -1.30859375 10.13671875 C-1.65083984 11.05904297 -1.65083984 11.05904297 -2 12 C-2.33 12 -2.66 12 -3 12 C-3.08131463 10.56344146 -3.13933559 9.1255517 -3.1875 7.6875 C-3.22230469 6.88699219 -3.25710937 6.08648437 -3.29296875 5.26171875 C-2.93801608 2.52148416 -2.10633718 1.70828921 0 0 Z " fill="#CC6E70" transform="translate(116,198)"/>
<path d="M0 0 C0.66 0 1.32 0 2 0 C1.5205537 4.21912747 0.83374881 6.79663178 -2 10 C-1.125 2.25 -1.125 2.25 0 0 Z " fill="#C96063" transform="translate(228,515)"/>
<path d="M0 0 C0.33 0 0.66 0 1 0 C0.53199289 4.05606165 0.12046792 7.46588679 -2 11 C-2.33 9.02 -2.66 7.04 -3 5 C-2.34 5 -1.68 5 -1 5 C-0.67 3.35 -0.34 1.7 0 0 Z " fill="#D17C7D" transform="translate(56,395)"/>
<path d="M0 0 C2 1 2 1 3.1875 3.3125 C4.03624754 6.11989571 3.99928333 7.301935 3 10 C-0.00617269 6.99382731 0.40414684 4.17618402 0 0 Z " fill="#CF6D6F" transform="translate(285,334)"/>
<path d="M0 0 C0 0.66 0 1.32 0 2 C-6.28571429 4.42857143 -6.28571429 4.42857143 -10 3 C-6.27034861 0.96564469 -4.33094958 0 0 0 Z " fill="#CF6E70" transform="translate(228,250)"/>
<path d="M0 0 C0.66 0 1.32 0 2 0 C2 2.97 2 5.94 2 9 C0.10786631 6.61426621 -1.02391783 4.92824652 -2 2 C-1.34 2 -0.68 2 0 2 C0 1.34 0 0.68 0 0 Z " fill="#D15055" transform="translate(124,162)"/>
<path d="M0 0 C0.33 0 0.66 0 1 0 C2.29243536 4.1196377 3.26252625 7.66831683 3 12 C0.89366282 10.29171079 0.06198392 9.47851584 -0.29296875 6.73828125 C-0.25816406 5.93777344 -0.22335937 5.13726562 -0.1875 4.3125 C-0.16042969 3.50425781 -0.13335937 2.69601563 -0.10546875 1.86328125 C-0.07066406 1.24839844 -0.03585937 0.63351563 0 0 Z " fill="#D1757D" transform="translate(347,121)"/>
<path d="M0 0 C0.33 0 0.66 0 1 0 C0.25 7.625 0.25 7.625 -2 11 C-2.25 3.375 -2.25 3.375 0 0 Z " fill="#C86464" transform="translate(169,21)"/>
<path d="M0 0 C1 2 1 2 0.25 5.0625 C-0.1625 6.031875 -0.575 7.00125 -1 8 C-1.99 8.33 -2.98 8.66 -4 9 C-3.71848913 7.68528432 -3.42446661 6.37324233 -3.125 5.0625 C-2.96257812 4.33160156 -2.80015625 3.60070312 -2.6328125 2.84765625 C-2 1 -2 1 0 0 Z " fill="#CF6F71" transform="translate(159,2)"/>
<path d="M0 0 C0.99 0 1.98 0 3 0 C2.690625 0.70125 2.38125 1.4025 2.0625 2.125 C0.96697322 5.08936657 0.43577008 7.87698108 0 11 C-0.33 11 -0.66 11 -1 11 C-1.0270043 9.54176788 -1.04639787 8.08339325 -1.0625 6.625 C-1.07410156 5.81289062 -1.08570313 5.00078125 -1.09765625 4.1640625 C-1 2 -1 2 0 0 Z " fill="#C05956" transform="translate(227,0)"/>
<path d="M0 0 C0 3 0 3 -1.3125 4.38671875 C-2.875 5.59114583 -4.4375 6.79557292 -6 8 C-4.52307692 2.33846154 -4.52307692 2.33846154 -1.875 0.625 C-0.946875 0.315625 -0.946875 0.315625 0 0 Z " fill="#C56E70" transform="translate(277,523)"/>
<path d="M0 0 C1.65 0 3.3 0 5 0 C3.68 0.33 2.36 0.66 1 1 C0.67 2.32 0.34 3.64 0 5 C-1.65 5 -3.3 5 -5 5 C-4.67 4.34 -4.34 3.68 -4 3 C-3.01 3 -2.02 3 -1 3 C-0.67 2.01 -0.34 1.02 0 0 Z " fill="#CA5257" transform="translate(287,425)"/>
<path d="M0 0 C0.66 0.33 1.32 0.66 2 1 C1.67 3.31 1.34 5.62 1 8 C0.01 8 -0.98 8 -2 8 C-1.47731534 5.23723823 -0.89130413 2.6739124 0 0 Z " fill="#CC666A" transform="translate(81,309)"/>
<path d="M0 0 C0.66 0.33 1.32 0.66 2 1 C1.34 3.97 0.68 6.94 0 10 C-0.33 10 -0.66 10 -1 10 C-1.125 2.25 -1.125 2.25 0 0 Z " fill="#CC7476" transform="translate(99,250)"/>
<path d="M0 0 C2.51471866 2.51471866 3.15955106 4.56816682 4 8 C3.01 9.485 3.01 9.485 2 11 C0.57741188 7.17679443 -0.24042276 4.08718695 0 0 Z " fill="#CE7275" transform="translate(349,187)"/>
<path d="M0 0 C1.64826111 2.96687001 2.44271087 5.65626525 3 9 C2.01 9.495 2.01 9.495 1 10 C1 8.68 1 7.36 1 6 C0.34 6 -0.32 6 -1 6 C-0.67 4.02 -0.34 2.04 0 0 Z " fill="#CC6769" transform="translate(342,106)"/>
<path d="M0 0 C0.99 0 1.98 0 3 0 C2.25 4.75 2.25 4.75 0 7 C-1.125 2.25 -1.125 2.25 0 0 Z " fill="#CE6067" transform="translate(60,376)"/>
<path d="M0 0 C1.32 0.66 2.64 1.32 4 2 C3.67 2.99 3.34 3.98 3 5 C2.01 5 1.02 5 0 5 C-0.5625 3.0625 -0.5625 3.0625 -1 1 C-0.67 0.67 -0.34 0.34 0 0 Z " fill="#CE413E" transform="translate(219,301)"/>
<path d="M0 0 C1.32 0.33 2.64 0.66 4 1 C2.71937515 2.7074998 1.38232443 4.37373596 0 6 C-0.66 6 -1.32 6 -2 6 C-2 5.34 -2 4.68 -2 4 C-2.66 3.67 -3.32 3.34 -4 3 C-2.68 3 -1.36 3 0 3 C0 2.01 0 1.02 0 0 Z " fill="#D36C6E" transform="translate(252,299)"/>
<path d="M0 0 C0.99 0.33 1.98 0.66 3 1 C4.1875 4.0625 4.1875 4.0625 5 7 C4.34 7.66 3.68 8.32 3 9 C2.01 6.03 1.02 3.06 0 0 Z " fill="#D07577" transform="translate(206,287)"/>
<path d="M0 0 C0.33 0 0.66 0 1 0 C1 2.64 1 5.28 1 8 C0.01 8.33 -0.98 8.66 -2 9 C-1.51421457 5.87709365 -1.0013988 3.00419641 0 0 Z " fill="#C53F47" transform="translate(76,274)"/>
<path d="M0 0 C0.66 0.33 1.32 0.66 2 1 C1.67 2.32 1.34 3.64 1 5 C-0.65 5 -2.3 5 -4 5 C-2.68 3.35 -1.36 1.7 0 0 Z " fill="#D87575" transform="translate(216,254)"/>
<path d="M0 0 C2 4 2 4 1.125 7.25 C0.75375 8.1575 0.3825 9.065 0 10 C-0.66 9.67 -1.32 9.34 -2 9 C-1.34 6.03 -0.68 3.06 0 0 Z " fill="#CE6A6D" transform="translate(99,194)"/>
<path d="M0 0 C2 4 2 4 2 7 C1.34 7 0.68 7 0 7 C0 7.66 0 8.32 0 9 C-0.66 9 -1.32 9 -2 9 C-1.34 6.03 -0.68 3.06 0 0 Z " fill="#D07375" transform="translate(119,128)"/>
<path d="M0 0 C0.33 0.66 0.66 1.32 1 2 C1.66 2 2.32 2 3 2 C2.625 3.9375 2.625 3.9375 2 6 C1.01 6.495 1.01 6.495 0 7 C-1.125 2.25 -1.125 2.25 0 0 Z " fill="#D55C63" transform="translate(143,50)"/>
<path d="M0 0 C0.66 0 1.32 0 2 0 C2 2.31 2 4.62 2 7 C1.01 7 0.02 7 -1 7 C-0.67 4.69 -0.34 2.38 0 0 Z " fill="#CD686B" transform="translate(153,16)"/>
<path d="M0 0 C0.66 0.33 1.32 0.66 2 1 C1.34 2.98 0.68 4.96 0 7 C-0.66 6.67 -1.32 6.34 -2 6 C-2 4.35 -2 2.7 -2 1 C-1.34 0.67 -0.68 0.34 0 0 Z " fill="#CD3F3E" transform="translate(171,9)"/>
</svg>
