<svg id="svg" version="1.1" xmlns="http://www.w3.org/2000/svg" xmlns:xlink="http://www.w3.org/1999/xlink" width="400" height="98.40255591054314" viewBox="0, 0, 400,98.40255591054314"><g id="svgg"><path id="path0" d="M22.725 4.628 C 22.620 4.695,22.507 4.938,22.475 5.167 C 22.409 5.640,21.636 5.776,18.792 5.814 L 17.333 5.833 17.333 6.417 L 17.333 7.000 15.680 7.000 C 13.639 7.000,13.500 7.049,13.500 7.761 L 13.500 8.319 12.292 8.368 L 11.083 8.417 10.929 9.042 C 10.789 9.608,10.722 9.667,10.221 9.667 C 9.699 9.667,9.667 9.700,9.667 10.250 C 9.667 10.819,9.651 10.833,9.000 10.833 L 8.333 10.833 8.333 11.500 L 8.333 12.167 7.406 12.167 C 5.993 12.167,5.833 12.310,5.833 13.579 L 5.833 14.647 5.208 14.698 C 4.617 14.747,4.581 14.784,4.532 15.375 C 4.489 15.890,4.416 16.000,4.115 16.003 C 3.356 16.008,3.263 16.218,3.194 18.065 L 3.130 19.815 2.606 19.866 L 2.083 19.917 2.039 24.292 L 1.994 28.667 2.575 28.667 L 3.156 28.667 3.203 30.542 L 3.250 32.417 3.875 32.468 L 4.500 32.520 4.500 33.333 C 4.500 34.554,4.722 35.000,5.329 35.000 C 5.806 35.000,5.833 35.036,5.833 35.667 C 5.833 36.317,5.847 36.333,6.417 36.333 C 6.923 36.333,7.000 36.387,7.000 36.736 C 7.000 37.460,7.170 37.667,7.768 37.667 C 8.299 37.667,8.333 37.701,8.333 38.231 C 8.333 38.884,8.566 38.994,9.948 38.998 C 10.801 39.000,10.813 39.007,10.864 39.542 C 10.912 40.036,10.971 40.088,11.542 40.135 C 12.057 40.178,12.167 40.251,12.169 40.552 C 12.175 41.320,12.385 41.413,14.244 41.474 L 16.000 41.530 16.000 42.079 C 16.000 42.723,16.236 42.828,17.708 42.831 C 18.597 42.833,18.667 42.861,18.667 43.217 C 18.667 43.947,18.894 44.000,22.023 44.000 L 24.980 44.000 25.032 44.625 L 25.083 45.250 26.949 45.297 L 28.814 45.344 28.865 45.964 C 28.912 46.528,28.965 46.588,29.456 46.635 C 29.906 46.679,30.019 46.776,30.133 47.219 C 30.246 47.659,30.361 47.759,30.801 47.802 L 31.333 47.854 31.333 49.143 L 31.333 50.431 30.792 50.591 C 30.379 50.712,30.238 50.856,30.199 51.195 C 30.155 51.571,30.044 51.658,29.490 51.752 C 28.876 51.856,28.833 51.899,28.833 52.431 L 28.833 53.000 27.500 53.000 L 26.167 53.000 26.167 52.495 C 26.167 51.986,26.112 51.940,25.313 51.766 C 24.996 51.697,24.849 51.537,24.778 51.184 C 24.704 50.810,24.563 50.670,24.174 50.585 C 23.689 50.478,23.667 50.436,23.664 49.612 C 23.661 48.233,23.550 48.000,22.897 48.000 C 22.350 48.000,22.333 47.980,22.333 47.332 L 22.333 46.664 11.542 46.707 L 0.750 46.750 0.750 49.048 C 0.750 51.506,0.801 51.659,1.625 51.664 C 1.980 51.667,2.000 51.733,2.000 52.899 C 2.000 54.186,2.086 54.333,2.840 54.333 C 3.112 54.333,3.158 54.489,3.201 55.542 L 3.250 56.750 3.875 56.802 L 4.500 56.853 4.500 57.830 C 4.500 59.156,4.591 59.333,5.268 59.333 C 5.800 59.333,5.833 59.367,5.833 59.899 C 5.833 60.494,6.040 60.667,6.753 60.667 C 7.074 60.667,7.155 60.765,7.198 61.208 C 7.250 61.749,7.252 61.750,8.458 61.898 L 9.667 62.046 9.667 62.606 C 9.667 63.136,9.699 63.167,10.250 63.167 C 10.756 63.167,10.833 63.220,10.833 63.570 C 10.833 64.423,10.952 64.500,12.268 64.500 L 13.500 64.500 13.500 65.061 C 13.500 65.704,13.949 65.833,16.179 65.833 L 17.312 65.833 17.364 66.375 L 17.417 66.917 27.750 66.963 C 39.212 67.014,38.750 67.040,38.891 66.335 C 38.990 65.843,39.011 65.833,40.038 65.821 C 42.042 65.797,42.569 65.650,42.666 65.083 C 42.749 64.600,42.788 64.580,43.842 64.489 C 45.165 64.375,45.333 64.282,45.333 63.667 C 45.333 63.232,45.393 63.182,45.958 63.135 C 46.529 63.088,46.588 63.036,46.636 62.542 C 46.683 62.049,46.738 62.000,47.246 62.000 C 47.767 62.000,47.811 61.956,47.917 61.333 C 48.022 60.708,48.064 60.667,48.598 60.667 C 49.149 60.667,49.167 60.646,49.167 60.010 C 49.167 59.372,49.184 59.352,49.792 59.302 C 50.358 59.255,50.421 59.200,50.468 58.725 C 50.511 58.275,50.599 58.185,51.083 58.094 C 51.591 57.999,51.652 57.927,51.699 57.369 C 51.743 56.830,51.810 56.743,52.217 56.696 C 52.837 56.625,53.000 56.154,53.000 54.424 L 53.000 53.037 53.565 52.931 C 54.325 52.789,54.328 52.765,54.331 47.996 L 54.333 43.908 55.000 43.971 L 55.667 44.035 55.667 46.500 C 55.667 49.119,55.682 49.167,56.506 49.167 C 56.779 49.167,56.825 49.322,56.868 50.375 L 56.917 51.583 57.542 51.635 L 58.167 51.687 58.167 52.912 L 58.167 54.137 58.833 54.250 L 59.500 54.363 59.500 55.192 C 59.500 56.231,59.724 56.667,60.256 56.667 C 60.579 56.667,60.667 56.752,60.667 57.070 C 60.667 57.749,60.842 57.987,61.423 58.096 C 61.900 58.185,61.989 58.277,62.032 58.725 C 62.078 59.199,62.143 59.255,62.699 59.301 C 63.277 59.349,63.317 59.390,63.366 59.968 C 63.412 60.527,63.466 60.588,63.956 60.635 C 64.406 60.679,64.519 60.776,64.633 61.219 C 64.765 61.734,64.805 61.754,65.968 61.898 L 67.167 62.046 67.167 62.606 C 67.167 63.132,67.201 63.167,67.732 63.167 C 68.305 63.167,68.500 63.377,68.500 63.994 C 68.500 64.356,68.947 64.495,70.125 64.498 C 70.935 64.500,71.000 64.530,71.000 64.896 C 71.000 65.519,71.327 65.654,73.123 65.771 C 74.782 65.880,74.802 65.886,74.892 66.336 C 75.019 66.969,75.207 66.995,79.695 66.998 L 83.640 67.000 83.758 67.542 C 83.925 68.315,83.977 68.328,86.861 68.331 C 89.930 68.334,90.000 68.317,90.000 67.566 L 90.000 67.000 94.300 67.000 C 98.825 67.000,99.000 66.972,99.000 66.242 C 99.000 65.904,99.101 65.878,100.777 65.783 C 102.630 65.678,102.826 65.591,102.831 64.875 C 102.833 64.529,102.909 64.500,103.820 64.500 C 105.156 64.500,105.333 64.410,105.333 63.732 C 105.333 63.184,105.353 63.167,106.000 63.167 C 106.646 63.167,106.667 63.149,106.667 62.606 L 106.667 62.046 107.875 61.898 C 109.081 61.750,109.083 61.749,109.136 61.208 C 109.175 60.795,109.267 60.667,109.522 60.667 C 110.125 60.667,110.500 60.349,110.500 59.838 C 110.500 59.414,110.567 59.348,111.042 59.302 C 111.514 59.257,111.603 59.170,111.738 58.625 C 111.843 58.199,111.985 58.000,112.184 58.000 C 112.691 58.000,112.981 57.524,113.096 56.505 C 113.204 55.549,113.224 55.516,113.729 55.467 L 114.250 55.417 114.299 54.208 C 114.347 53.012,114.353 53.000,114.807 53.000 C 115.060 53.000,115.357 52.910,115.467 52.800 C 115.622 52.644,115.667 52.918,115.667 54.032 C 115.667 55.529,115.597 55.667,114.841 55.667 C 114.460 55.667,114.333 56.272,114.333 58.094 L 114.333 59.479 113.792 59.531 L 113.250 59.583 113.203 61.458 L 113.156 63.333 112.667 63.333 C 111.884 63.333,111.507 64.656,112.070 65.426 C 112.309 65.753,131.352 66.050,132.958 65.752 L 133.500 65.652 133.500 64.444 L 133.500 63.236 134.036 63.076 C 134.720 62.873,134.796 62.589,134.817 60.144 L 134.833 58.204 135.399 58.098 C 135.883 58.007,135.980 57.908,136.073 57.412 L 136.182 56.833 145.068 56.833 L 153.954 56.833 154.043 57.938 C 154.135 59.085,154.293 59.326,154.953 59.331 C 155.310 59.333,155.324 59.398,155.370 61.208 L 155.417 63.083 155.958 63.136 L 156.500 63.188 156.500 64.338 C 156.500 65.312,156.550 65.515,156.829 65.664 C 157.541 66.045,210.986 65.805,211.268 65.420 C 211.605 64.959,211.541 49.807,211.200 49.467 C 211.031 49.298,209.499 49.240,204.242 49.203 L 197.500 49.156 197.480 28.036 C 197.469 16.420,197.412 6.692,197.354 6.417 L 197.247 5.917 187.259 5.874 C 179.379 5.840,177.243 5.875,177.138 6.040 C 177.065 6.156,177.004 18.271,177.003 32.964 C 177.000 59.324,176.996 59.676,176.678 59.506 C 176.500 59.411,176.200 59.333,176.011 59.333 C 175.684 59.333,175.667 59.242,175.667 57.508 L 175.667 55.682 175.107 55.577 L 174.547 55.472 174.456 53.361 C 174.351 50.900,174.300 50.722,173.653 50.580 L 173.167 50.474 173.167 48.998 C 173.167 47.117,173.008 46.667,172.343 46.667 L 171.844 46.667 171.797 44.792 L 171.750 42.917 171.208 42.864 L 170.667 42.812 170.665 41.531 C 170.662 39.351,170.556 39.000,169.900 39.000 L 169.344 39.000 169.297 37.125 L 169.250 35.250 168.625 35.198 L 168.000 35.147 168.000 33.240 L 168.000 31.333 167.440 31.333 L 166.881 31.333 166.791 29.125 C 166.687 26.582,166.630 26.371,166.028 26.301 C 165.584 26.250,165.583 26.249,165.480 24.417 C 165.357 22.256,165.460 22.539,164.750 22.406 L 164.167 22.296 164.167 20.499 C 164.167 18.600,164.124 18.500,163.320 18.500 C 163.030 18.500,162.998 18.362,162.983 17.042 C 162.961 15.049,162.865 14.763,162.202 14.698 L 161.667 14.646 161.667 12.841 C 161.667 10.904,161.634 10.833,160.742 10.833 C 160.349 10.833,160.344 10.810,160.297 8.958 L 160.250 7.083 159.714 7.032 C 159.250 6.987,159.164 6.903,159.070 6.406 L 158.963 5.831 145.023 5.874 L 131.083 5.917 131.034 7.125 L 130.985 8.333 130.430 8.333 C 129.760 8.333,129.667 8.631,129.667 10.760 L 129.667 12.146 129.125 12.198 L 128.583 12.250 128.536 14.125 L 128.489 16.000 128.028 16.000 C 127.269 16.000,127.167 16.251,127.167 18.106 L 127.167 19.812 126.632 19.864 C 125.968 19.929,125.873 20.216,125.850 22.208 C 125.834 23.614,125.820 23.667,125.450 23.667 C 124.775 23.667,124.667 23.959,124.667 25.783 C 124.667 27.452,124.656 27.500,124.292 27.503 C 123.476 27.508,123.420 27.668,123.362 30.160 C 123.311 32.367,123.289 32.500,122.976 32.500 C 122.105 32.500,122.000 32.725,122.000 34.582 L 122.000 36.318 121.417 36.428 L 120.833 36.537 120.833 38.337 L 120.833 40.137 120.167 40.250 L 119.500 40.363 119.500 42.163 L 119.500 43.963 118.933 44.069 C 118.218 44.203,118.167 44.350,118.167 46.246 C 118.167 47.880,118.109 48.000,117.320 48.000 C 117.024 48.000,117.000 48.137,117.000 49.799 L 117.000 51.598 116.333 51.776 L 115.667 51.954 115.667 50.560 C 115.667 49.227,115.683 49.167,116.042 49.164 C 116.836 49.159,116.887 49.008,116.902 46.593 C 116.914 44.746,116.870 44.294,116.667 44.164 C 116.311 43.938,95.912 43.946,95.489 44.173 C 95.218 44.318,95.167 44.529,95.167 45.506 L 95.167 46.667 94.583 46.667 C 94.014 46.667,94.000 46.683,94.000 47.333 C 94.000 47.913,93.951 48.000,93.625 48.003 C 93.106 48.006,92.903 48.174,92.772 48.708 C 92.692 49.037,92.555 49.167,92.288 49.169 C 91.749 49.173,91.557 49.349,91.424 49.958 C 91.309 50.492,91.292 50.500,90.362 50.503 C 89.253 50.506,89.066 50.597,88.912 51.210 L 88.797 51.667 86.242 51.667 L 83.688 51.667 83.636 51.125 L 83.583 50.583 82.292 50.535 C 81.063 50.488,81.000 50.467,81.000 50.097 C 81.000 49.555,80.718 49.373,79.663 49.236 C 78.699 49.111,78.507 48.971,78.503 48.393 C 78.500 48.026,78.210 47.833,77.660 47.833 C 77.388 47.833,77.342 47.678,77.299 46.625 L 77.250 45.417 76.625 45.365 L 76.000 45.313 76.000 36.407 L 76.000 27.500 76.467 27.500 C 77.175 27.500,77.333 27.220,77.333 25.967 L 77.333 24.833 77.917 24.833 C 78.472 24.833,78.500 24.806,78.500 24.250 C 78.500 23.744,78.554 23.667,78.903 23.667 C 79.627 23.667,79.833 23.496,79.833 22.899 L 79.833 22.333 80.820 22.333 C 82.156 22.333,82.333 22.244,82.333 21.566 L 82.333 21.000 85.583 21.000 L 88.833 21.000 88.833 21.467 C 88.833 22.161,89.118 22.333,90.266 22.333 C 91.340 22.333,91.500 22.443,91.500 23.180 C 91.500 23.400,91.617 23.501,91.875 23.503 C 92.427 23.506,92.630 23.692,92.693 24.251 C 92.744 24.695,92.819 24.756,93.375 24.802 C 93.983 24.852,94.000 24.872,94.000 25.510 C 94.000 26.148,94.017 26.167,94.576 26.167 L 95.152 26.167 95.201 27.375 L 95.250 28.583 106.022 28.626 L 116.794 28.669 116.895 28.293 C 117.266 26.909,116.913 25.030,116.270 24.967 L 115.750 24.917 115.709 22.750 C 115.656 19.900,115.638 19.833,114.913 19.833 L 114.333 19.833 114.333 18.594 L 114.333 17.354 113.792 17.302 C 113.256 17.251,113.248 17.237,113.082 16.085 C 112.921 14.969,112.892 14.916,112.415 14.833 C 111.995 14.761,111.904 14.656,111.833 14.165 C 111.757 13.633,111.698 13.579,111.134 13.532 C 110.556 13.484,110.516 13.444,110.468 12.866 C 110.421 12.302,110.368 12.243,109.833 12.167 C 109.315 12.093,109.241 12.019,109.167 11.500 C 109.093 10.984,109.020 10.911,108.542 10.864 C 108.144 10.826,108.000 10.730,108.000 10.503 C 108.000 9.822,107.819 9.667,107.024 9.664 C 105.789 9.661,105.522 9.534,105.402 8.898 L 105.296 8.333 104.075 8.333 L 102.853 8.333 102.802 7.708 L 102.750 7.083 101.552 7.035 L 100.353 6.986 100.302 6.451 L 100.250 5.917 98.500 5.812 C 97.537 5.755,96.394 5.698,95.958 5.687 C 95.249 5.669,95.167 5.627,95.167 5.283 C 95.167 4.496,95.203 4.500,87.391 4.500 L 80.015 4.500 79.910 5.060 L 79.805 5.620 77.034 5.740 C 74.080 5.867,73.720 5.952,73.637 6.541 C 73.590 6.872,73.475 6.922,72.667 6.960 C 71.131 7.032,71.000 7.095,71.000 7.753 L 71.000 8.333 69.768 8.333 C 68.482 8.333,68.333 8.420,68.333 9.170 C 68.333 9.478,68.004 9.571,66.417 9.707 C 65.987 9.744,65.909 9.825,65.865 10.282 C 65.818 10.764,65.756 10.819,65.198 10.866 C 64.619 10.914,64.580 10.953,64.532 11.542 C 64.483 12.133,64.449 12.167,63.907 12.167 C 63.366 12.167,63.333 12.199,63.333 12.732 C 63.333 13.330,63.127 13.500,62.403 13.500 C 62.055 13.500,62.000 13.578,62.000 14.073 C 62.000 14.615,61.966 14.649,61.375 14.698 C 60.784 14.747,60.747 14.784,60.698 15.375 C 60.649 15.966,60.615 16.000,60.073 16.000 L 59.500 16.000 59.500 17.240 L 59.500 18.480 58.875 18.532 C 58.284 18.581,58.247 18.617,58.198 19.208 C 58.151 19.774,58.101 19.833,57.666 19.833 C 57.042 19.833,56.934 20.029,56.833 21.333 C 56.756 22.335,56.719 22.421,56.333 22.475 C 55.711 22.562,55.672 22.722,55.669 25.198 L 55.667 27.480 55.042 27.532 L 54.417 27.583 54.331 35.250 C 54.284 39.467,54.227 42.725,54.206 42.492 C 54.156 41.952,53.872 41.667,53.383 41.667 C 53.015 41.667,53.000 41.614,53.000 40.333 L 53.000 39.000 52.427 39.000 C 51.812 39.000,51.785 38.936,51.626 37.083 C 51.589 36.654,51.508 36.576,51.051 36.532 C 50.569 36.485,50.514 36.422,50.468 35.865 C 50.420 35.285,50.381 35.247,49.792 35.198 C 49.234 35.152,49.167 35.097,49.167 34.690 C 49.167 34.110,48.890 33.833,48.311 33.833 C 47.918 33.833,47.847 33.758,47.802 33.292 C 47.750 32.751,47.747 32.750,46.551 32.603 C 45.366 32.458,45.351 32.449,45.301 31.936 L 45.250 31.417 44.042 31.368 C 42.956 31.324,42.833 31.284,42.833 30.982 C 42.833 30.105,42.611 30.000,40.755 30.000 L 39.021 30.000 38.969 29.460 C 38.904 28.793,38.479 28.690,35.708 28.676 C 33.866 28.667,33.833 28.660,33.833 28.283 C 33.833 27.573,33.574 27.500,31.060 27.500 L 28.687 27.500 28.635 26.875 L 28.583 26.250 27.387 26.201 C 26.219 26.154,26.187 26.141,26.085 25.674 C 25.963 25.118,25.871 25.070,24.609 24.913 L 23.667 24.795 23.667 22.897 L 23.667 21.000 24.250 21.000 C 24.806 21.000,24.833 20.972,24.833 20.417 L 24.833 19.833 26.833 19.833 L 28.833 19.833 28.833 20.417 C 28.833 20.971,28.862 21.000,29.411 21.000 L 29.989 21.000 30.036 22.875 L 30.083 24.750 40.612 24.793 C 52.433 24.841,51.667 24.923,51.667 23.605 C 51.667 22.819,51.446 22.500,50.902 22.500 C 50.548 22.500,50.536 22.435,50.474 20.189 C 50.406 17.710,50.286 17.333,49.563 17.333 C 49.185 17.333,49.167 17.282,49.167 16.200 C 49.167 14.946,49.009 14.667,48.300 14.667 C 47.878 14.667,47.833 14.611,47.833 14.083 C 47.833 13.590,47.775 13.500,47.458 13.497 C 46.861 13.493,46.723 13.308,46.597 12.337 C 46.460 11.285,46.278 11.000,45.743 11.000 C 45.451 11.000,45.333 10.878,45.248 10.489 C 45.122 9.917,44.800 9.737,43.635 9.585 C 42.903 9.489,42.850 9.449,42.802 8.950 C 42.755 8.465,42.693 8.412,42.125 8.365 C 41.610 8.322,41.500 8.249,41.497 7.948 C 41.492 7.189,41.283 7.096,39.426 7.027 L 37.667 6.962 37.667 6.422 L 37.667 5.883 36.292 5.776 C 35.535 5.717,34.378 5.668,33.720 5.668 C 32.610 5.667,32.519 5.640,32.470 5.296 C 32.367 4.580,31.869 4.505,27.250 4.505 C 24.867 4.505,22.830 4.560,22.725 4.628 M212.875 35.792 L 212.917 65.750 233.635 65.792 C 247.727 65.821,254.456 65.779,254.676 65.661 C 255.000 65.488,255.208 51.569,254.899 50.764 C 254.808 50.527,253.639 50.500,243.399 50.500 L 232.000 50.500 232.000 47.250 L 232.000 44.000 243.399 44.000 C 253.639 44.000,254.808 43.973,254.899 43.736 C 255.068 43.294,255.010 29.273,254.837 29.000 C 254.700 28.783,253.202 28.744,243.339 28.702 L 232.000 28.654 232.000 25.493 L 232.000 22.333 243.397 22.333 L 254.794 22.333 254.895 21.958 C 255.029 21.460,255.029 7.022,254.896 6.354 L 254.792 5.833 233.812 5.833 L 212.832 5.833 212.875 35.792 M145.368 28.458 C 145.463 28.573,145.717 28.667,145.932 28.667 C 146.316 28.667,146.323 28.699,146.370 30.542 L 146.417 32.417 147.042 32.468 L 147.667 32.520 147.669 34.802 C 147.672 37.288,147.699 37.396,148.375 37.561 L 148.833 37.673 148.836 39.212 C 148.839 41.307,148.904 41.500,149.603 41.500 C 150.150 41.500,150.167 41.520,150.167 42.167 L 150.167 42.833 145.083 42.833 L 140.000 42.833 140.000 42.177 C 140.000 41.559,140.031 41.518,140.542 41.469 L 141.083 41.417 141.130 39.559 L 141.177 37.702 141.737 37.597 C 142.450 37.463,142.495 37.289,142.498 34.625 L 142.500 32.500 143.063 32.500 C 143.741 32.500,143.833 32.208,143.833 30.073 L 143.833 28.688 144.375 28.636 C 144.873 28.588,144.923 28.529,144.990 27.917 C 145.056 27.308,145.068 27.293,145.129 27.750 C 145.166 28.025,145.274 28.344,145.368 28.458 M113.875 68.450 C 113.164 68.589,113.163 68.603,113.207 83.366 L 113.250 97.583 118.292 97.627 L 123.333 97.672 123.333 95.752 L 123.333 93.833 124.656 93.833 L 125.979 93.833 126.031 94.368 C 126.155 95.640,132.000 95.438,132.000 94.163 C 132.000 93.853,132.119 93.833,133.979 93.833 L 135.957 93.833 136.064 93.167 C 136.165 92.537,136.203 92.500,136.752 92.500 C 137.303 92.500,137.333 92.470,137.333 91.927 C 137.333 91.385,137.367 91.351,137.958 91.302 C 138.549 91.253,138.586 91.216,138.635 90.625 C 138.678 90.110,138.751 90.000,139.052 89.997 C 139.609 89.994,139.800 89.801,139.876 89.165 C 139.915 88.845,139.959 89.231,139.973 90.024 C 139.999 91.435,139.992 91.466,139.578 91.570 C 139.064 91.699,138.752 92.320,138.901 92.915 C 139.102 93.713,139.747 93.833,143.809 93.833 C 148.067 93.833,147.661 94.075,147.664 91.542 L 147.667 90.000 148.231 90.000 L 148.796 90.000 148.860 91.708 C 148.949 94.052,148.402 93.833,154.177 93.833 L 159.167 93.833 159.167 94.337 C 159.167 95.083,159.669 95.206,162.435 95.138 C 164.958 95.076,165.333 94.958,165.333 94.230 C 165.333 93.841,165.363 93.833,166.875 93.831 C 168.909 93.828,169.111 93.764,169.240 93.078 C 169.330 92.598,169.420 92.513,169.881 92.468 C 170.351 92.423,170.423 92.350,170.469 91.873 C 170.511 91.435,170.631 91.283,171.081 91.095 C 171.437 90.946,171.667 90.720,171.714 90.472 C 171.755 90.258,171.798 90.927,171.811 91.958 L 171.833 93.833 175.822 93.833 C 180.172 93.833,180.606 93.764,180.713 93.050 C 180.771 92.664,180.788 92.691,180.808 93.208 L 180.833 93.833 185.042 93.831 C 187.356 93.829,189.344 93.768,189.459 93.695 C 189.625 93.590,189.660 91.071,189.626 81.656 L 189.583 69.750 189.051 69.698 C 188.569 69.652,188.514 69.589,188.468 69.032 L 188.417 68.417 184.854 68.372 C 180.759 68.320,180.842 68.294,180.814 69.645 C 180.803 70.161,180.757 70.433,180.711 70.250 C 180.610 69.843,180.367 69.673,179.885 69.669 C 179.584 69.667,179.511 69.557,179.468 69.042 L 179.417 68.417 176.083 68.369 C 171.833 68.309,172.062 68.245,171.911 69.541 C 171.818 70.337,171.758 70.498,171.656 70.224 C 171.576 70.009,171.317 69.820,171.011 69.752 C 170.650 69.673,170.469 69.516,170.394 69.219 C 170.205 68.465,169.528 68.333,165.880 68.336 C 161.965 68.338,161.876 68.355,161.737 69.095 L 161.632 69.653 160.441 69.701 L 159.250 69.750 159.198 70.292 C 159.158 70.705,159.067 70.833,158.812 70.833 C 158.013 70.833,157.833 71.108,157.833 72.329 L 157.833 73.479 157.292 73.531 C 156.621 73.596,156.524 74.054,156.526 77.167 C 156.527 79.717,156.743 80.697,157.333 80.834 C 157.671 80.912,157.766 81.055,157.833 81.590 C 157.912 82.213,157.951 82.253,158.532 82.301 C 159.110 82.349,159.151 82.390,159.199 82.968 C 159.245 83.528,159.299 83.588,159.792 83.636 C 160.221 83.677,160.334 83.764,160.336 84.052 C 160.340 84.661,160.536 84.779,161.744 84.900 C 163.143 85.040,163.070 84.927,163.017 86.875 C 162.996 87.653,161.669 87.898,161.664 87.125 C 161.659 86.346,161.453 86.253,159.590 86.193 C 158.397 86.155,157.833 86.195,157.833 86.318 C 157.833 86.418,157.732 86.500,157.609 86.500 C 157.265 86.500,156.851 87.042,156.710 87.678 C 156.626 88.055,156.555 87.291,156.500 85.427 L 156.417 82.604 155.895 82.469 L 155.374 82.334 155.304 79.240 C 155.263 77.387,155.166 76.099,155.064 76.031 C 154.969 75.968,154.841 75.778,154.779 75.609 C 154.716 75.440,154.515 75.263,154.332 75.215 C 154.018 75.132,154.000 74.985,154.000 72.478 L 154.000 69.828 153.265 69.072 L 152.531 68.317 148.418 68.367 C 143.422 68.427,143.833 68.169,143.833 71.247 L 143.833 73.431 143.297 73.591 C 142.589 73.801,142.537 74.044,142.517 77.198 L 142.500 79.812 141.958 79.864 C 141.502 79.908,141.404 79.995,141.335 80.417 C 141.290 80.692,141.215 80.129,141.168 79.167 L 141.083 77.417 140.542 77.364 L 140.000 77.312 140.000 75.717 C 140.000 73.774,139.759 72.871,139.148 72.520 C 138.827 72.336,138.669 72.080,138.597 71.631 C 138.513 71.104,138.430 71.000,138.095 71.000 C 137.485 71.000,137.167 70.829,137.167 70.503 C 137.167 69.888,136.701 69.752,134.391 69.692 L 132.167 69.634 132.167 69.085 C 132.167 68.338,132.141 68.333,128.231 68.333 C 125.135 68.333,124.813 68.360,124.720 68.625 C 124.338 69.708,123.380 69.989,123.302 69.042 L 123.250 68.417 118.750 68.396 C 116.275 68.385,114.081 68.409,113.875 68.450 M190.986 68.958 C 190.755 69.316,190.421 69.606,190.208 69.637 L 189.833 69.690 189.833 81.755 L 189.833 93.819 191.125 93.868 C 192.307 93.913,192.421 93.947,192.468 94.280 C 192.661 95.630,200.319 95.565,200.915 94.208 C 201.063 93.870,201.195 93.833,202.256 93.833 C 203.552 93.833,203.833 93.680,203.833 92.977 C 203.833 92.569,203.901 92.515,204.458 92.468 C 205.026 92.421,205.088 92.368,205.135 91.885 C 205.180 91.422,205.255 91.346,205.718 91.301 L 206.250 91.250 206.339 88.250 C 206.388 86.600,206.444 85.451,206.464 85.697 C 206.525 86.454,206.807 86.995,207.247 87.195 C 207.638 87.374,207.667 87.468,207.668 88.568 C 207.669 90.291,207.900 90.988,208.510 91.110 C 208.951 91.199,209.000 91.273,209.000 91.854 C 209.000 92.478,209.019 92.500,209.569 92.500 C 210.102 92.500,210.144 92.541,210.250 93.167 C 210.359 93.812,210.383 93.833,211.018 93.833 C 211.544 93.833,211.709 93.911,211.852 94.225 C 212.193 94.973,213.026 95.167,215.900 95.167 C 218.805 95.167,219.167 95.074,219.167 94.327 C 219.167 93.837,219.174 93.833,220.125 93.831 C 221.283 93.828,221.495 93.710,221.662 92.980 L 221.792 92.417 221.991 92.946 C 222.293 93.748,222.771 93.833,226.942 93.833 L 230.667 93.833 230.667 91.917 L 230.667 90.000 231.328 90.000 L 231.989 90.000 232.036 91.875 L 232.083 93.750 236.446 93.794 C 240.497 93.836,240.813 93.818,240.885 93.544 C 240.957 93.267,240.962 93.267,240.981 93.542 C 240.998 93.810,241.293 93.833,244.675 93.833 C 248.703 93.833,249.161 93.743,249.545 92.867 C 249.724 92.460,249.751 92.544,249.830 93.750 L 249.917 95.083 253.167 95.083 C 256.908 95.083,257.289 95.020,257.364 94.387 C 257.402 94.062,257.551 93.899,257.917 93.780 C 258.994 93.429,259.025 91.700,257.958 91.439 L 257.500 91.327 257.500 89.094 C 257.500 86.470,257.475 86.375,256.734 86.236 L 256.167 86.130 256.167 84.327 C 256.167 82.750,256.130 82.515,255.875 82.448 C 255.597 82.376,255.597 82.371,255.875 82.353 C 256.101 82.338,256.167 82.183,256.167 81.667 C 256.167 81.036,256.194 81.000,256.671 81.000 C 257.422 81.000,257.500 80.584,257.498 76.614 C 257.495 72.450,257.482 72.376,256.741 72.237 C 256.244 72.144,256.179 72.068,256.134 71.525 C 256.088 70.973,256.033 70.912,255.542 70.864 C 255.144 70.826,255.000 70.730,255.000 70.503 C 255.000 69.755,254.850 69.667,253.579 69.667 C 252.362 69.667,252.360 69.666,252.251 69.170 C 252.084 68.411,251.458 68.321,246.656 68.372 C 242.718 68.414,242.441 68.437,242.268 68.735 C 241.973 69.244,241.519 69.667,241.268 69.667 C 240.852 69.667,240.834 70.079,240.811 80.055 C 240.798 85.479,240.755 89.742,240.714 89.528 C 240.667 89.284,240.459 89.077,240.153 88.970 L 239.667 88.801 239.667 86.424 C 239.667 83.372,239.554 82.500,239.158 82.500 C 238.335 82.500,238.333 82.493,238.333 79.252 L 238.333 76.207 237.667 75.520 L 237.000 74.833 237.000 72.326 C 237.000 69.669,237.014 69.724,236.083 68.809 L 235.583 68.317 231.466 68.367 C 226.503 68.427,226.942 68.161,226.860 71.154 L 226.796 73.466 226.336 73.558 C 225.685 73.688,225.632 73.917,225.540 77.042 C 225.466 79.537,225.427 79.833,225.171 79.833 C 224.462 79.833,224.333 79.360,224.331 76.737 C 224.328 73.631,224.297 73.500,223.564 73.500 L 223.000 73.500 223.000 72.339 C 223.000 71.108,222.822 70.833,222.022 70.833 C 221.767 70.833,221.675 70.705,221.636 70.292 C 221.588 69.795,221.530 69.746,220.947 69.698 C 220.473 69.659,220.139 69.478,219.632 68.986 L 218.952 68.326 215.934 68.371 L 212.917 68.417 212.865 69.042 L 212.813 69.667 211.782 69.669 C 210.555 69.672,210.381 69.760,210.307 70.417 C 210.258 70.846,210.168 70.928,209.667 71.000 C 209.098 71.081,209.082 71.104,209.031 71.917 C 208.975 72.818,208.518 73.500,207.971 73.500 C 207.702 73.500,207.667 73.653,207.667 74.815 C 207.667 76.068,207.647 76.135,207.263 76.232 C 206.867 76.331,206.619 76.820,206.449 77.833 C 206.410 78.063,206.369 77.046,206.356 75.574 C 206.332 72.778,206.247 72.418,205.583 72.304 C 205.354 72.265,205.232 72.092,205.194 71.749 C 205.118 71.078,204.885 70.833,204.323 70.833 C 203.916 70.833,203.848 70.762,203.802 70.292 L 203.750 69.750 202.391 69.702 C 201.139 69.657,201.026 69.624,200.938 69.277 C 200.733 68.457,200.023 68.333,195.522 68.333 L 191.389 68.333 190.986 68.958 M259.986 68.958 C 259.755 69.316,259.421 69.606,259.208 69.637 L 258.833 69.690 258.833 81.762 L 258.833 93.833 260.079 93.833 L 261.324 93.833 261.463 94.369 C 261.780 95.594,267.293 95.445,267.470 94.207 C 267.522 93.844,267.579 93.833,269.512 93.833 L 271.500 93.833 271.500 93.167 L 271.500 92.500 272.167 92.500 C 272.817 92.500,272.833 92.486,272.833 91.917 C 272.833 91.365,272.864 91.333,273.399 91.333 C 273.996 91.333,274.167 91.127,274.167 90.403 C 274.167 90.094,274.256 90.000,274.550 90.000 C 275.224 90.000,275.333 89.707,275.333 87.907 L 275.333 86.215 275.869 86.061 C 276.226 85.959,276.442 85.771,276.519 85.496 C 276.582 85.269,276.641 86.486,276.650 88.201 L 276.667 91.319 275.458 91.368 L 274.250 91.417 274.205 94.542 L 274.159 97.667 279.059 97.667 C 283.020 97.667,283.996 97.623,284.150 97.437 C 284.445 97.082,284.331 68.931,284.034 68.633 C 283.869 68.468,282.673 68.405,278.992 68.366 L 274.167 68.315 274.142 70.199 C 274.128 71.235,274.085 71.873,274.046 71.615 C 273.975 71.142,273.921 71.101,273.164 70.937 C 272.900 70.880,272.678 70.669,272.563 70.366 C 272.336 69.764,271.906 69.667,269.479 69.667 L 267.667 69.667 267.667 69.101 C 267.667 68.336,267.651 68.333,263.764 68.333 L 260.389 68.333 259.986 68.958 M171.823 76.625 C 171.817 79.831,171.753 81.937,171.669 81.730 C 171.591 81.535,171.340 81.329,171.111 81.272 C 170.784 81.190,170.672 81.027,170.583 80.501 C 170.478 79.874,170.436 79.833,169.902 79.833 C 169.383 79.833,169.333 79.790,169.333 79.339 C 169.333 78.815,168.963 78.500,168.347 78.500 C 168.122 78.500,167.971 78.358,167.901 78.079 C 167.761 77.522,167.367 77.333,166.344 77.333 L 165.500 77.333 165.500 76.667 L 165.500 76.000 166.167 76.000 C 166.817 76.000,166.833 76.014,166.833 76.583 L 166.833 77.167 168.644 77.167 L 170.455 77.167 170.561 76.393 C 170.619 75.968,170.667 74.811,170.667 73.822 C 170.667 72.083,170.679 72.021,171.042 71.970 C 171.248 71.941,171.491 71.748,171.581 71.542 C 171.672 71.335,171.765 71.167,171.790 71.167 C 171.814 71.167,171.829 73.623,171.823 76.625 M123.333 83.117 C 123.333 89.819,123.289 91.689,123.133 91.533 C 123.020 91.420,122.478 91.333,121.883 91.333 L 120.833 91.333 120.833 83.007 L 120.833 74.681 122.042 74.624 C 122.706 74.592,123.269 74.551,123.292 74.533 C 123.315 74.515,123.333 78.378,123.333 83.117 M276.667 76.046 L 276.667 77.425 276.000 77.362 L 275.333 77.298 275.333 75.982 L 275.333 74.667 276.000 74.667 L 276.667 74.667 276.667 76.046 M215.667 77.585 C 215.755 77.816,216.016 78.090,216.247 78.195 L 216.667 78.387 216.667 81.693 L 216.667 85.000 216.161 85.000 C 215.793 85.000,215.615 85.102,215.505 85.375 C 215.409 85.614,215.351 84.193,215.344 81.458 C 215.333 77.180,215.366 76.792,215.667 77.585 M132.291 83.199 C 132.262 84.327,132.239 83.450,132.239 81.250 C 132.238 79.050,132.262 78.127,132.291 79.199 C 132.320 80.271,132.320 82.071,132.291 83.199 M206.333 80.500 L 206.333 81.833 206.000 81.500 C 205.768 81.268,205.425 81.161,204.875 81.147 C 204.211 81.130,204.164 81.110,204.583 81.021 C 205.018 80.929,205.090 80.833,205.135 80.291 C 205.180 79.752,205.243 79.667,205.599 79.667 C 205.825 79.667,206.054 79.554,206.106 79.417 C 206.287 78.946,206.333 79.168,206.333 80.500 M141.167 85.833 C 141.167 86.056,141.056 86.167,140.833 86.167 C 140.514 86.167,140.513 86.153,140.792 85.847 C 141.165 85.438,141.167 85.438,141.167 85.833 " stroke="none" fill="#fcfcfc" fill-rule="evenodd"></path><path id="path1" d="M294.780 4.609 C 294.718 4.671,294.667 4.923,294.667 5.169 C 294.667 5.667,293.573 5.830,290.183 5.836 C 288.579 5.839,288.392 5.905,288.308 6.500 C 288.253 6.893,288.180 6.921,287.000 7.000 L 285.750 7.083 285.698 7.708 L 285.647 8.333 284.407 8.333 C 283.206 8.333,283.167 8.346,283.167 8.736 C 283.167 9.460,282.996 9.667,282.399 9.667 C 281.866 9.667,281.833 9.699,281.833 10.240 C 281.833 10.782,281.799 10.816,281.208 10.865 C 280.617 10.914,280.581 10.951,280.532 11.542 C 280.483 12.128,280.446 12.167,279.925 12.167 C 279.426 12.167,279.360 12.224,279.264 12.734 C 279.157 13.303,278.915 13.500,278.320 13.500 C 278.065 13.500,278.000 13.619,278.000 14.088 C 278.000 14.610,277.943 14.686,277.487 14.778 C 276.818 14.911,276.667 15.336,276.667 17.084 L 276.667 18.479 276.126 18.531 C 275.677 18.574,275.567 18.668,275.479 19.083 C 275.338 19.749,275.305 28.243,275.439 29.227 L 275.545 30.000 284.700 30.000 C 290.692 30.000,293.967 29.940,294.178 29.827 C 294.478 29.667,294.500 29.450,294.500 26.661 L 294.500 23.667 294.903 23.667 C 295.627 23.667,295.833 23.496,295.833 22.899 C 295.833 22.367,295.867 22.333,296.399 22.333 C 296.996 22.333,297.167 22.127,297.167 21.403 C 297.167 21.000,297.167 21.000,299.083 21.000 C 300.959 21.000,301.000 21.008,301.003 21.375 C 301.007 22.066,301.255 22.229,302.409 22.303 L 303.507 22.373 303.462 25.561 L 303.417 28.750 302.885 28.801 C 302.423 28.846,302.346 28.922,302.301 29.382 C 302.261 29.800,302.146 29.946,301.750 30.078 C 301.073 30.305,301.006 30.436,301.003 31.520 L 301.000 32.457 300.333 32.564 C 299.703 32.665,299.667 32.703,299.667 33.252 C 299.667 33.802,299.636 33.833,299.098 33.833 C 298.564 33.833,298.522 33.874,298.417 34.500 C 298.311 35.123,298.267 35.167,297.745 35.167 C 297.220 35.167,297.184 35.204,297.135 35.792 C 297.088 36.366,297.036 36.423,296.500 36.500 C 295.989 36.573,295.910 36.648,295.866 37.108 C 295.822 37.556,295.733 37.648,295.262 37.737 C 294.714 37.840,294.708 37.850,294.595 38.994 C 294.482 40.141,294.479 40.147,293.949 40.198 C 293.467 40.245,293.412 40.308,293.366 40.866 C 293.317 41.444,293.277 41.484,292.699 41.532 C 292.119 41.580,292.080 41.619,292.032 42.208 C 291.983 42.795,291.946 42.833,291.425 42.833 C 290.926 42.833,290.860 42.890,290.764 43.401 C 290.657 43.970,290.415 44.167,289.820 44.167 C 289.565 44.167,289.500 44.286,289.500 44.750 C 289.500 45.257,289.447 45.333,289.095 45.333 C 288.577 45.333,288.167 45.744,288.167 46.262 C 288.167 46.551,288.074 46.667,287.845 46.667 C 287.312 46.667,287.040 47.104,286.917 48.162 L 286.801 49.167 286.234 49.167 C 285.683 49.167,285.667 49.186,285.667 49.833 L 285.667 50.500 285.000 50.500 C 284.353 50.500,284.333 50.517,284.333 51.065 C 284.333 51.578,284.280 51.640,283.750 51.739 C 283.238 51.835,283.167 51.909,283.167 52.346 C 283.167 52.849,283.115 52.892,282.292 53.073 C 281.899 53.159,281.833 53.256,281.833 53.753 C 281.833 54.243,281.775 54.334,281.458 54.336 C 280.793 54.340,280.635 54.580,280.544 55.720 L 280.456 56.816 279.853 56.866 C 279.287 56.914,279.247 56.955,279.198 57.542 C 279.149 58.133,279.115 58.167,278.573 58.167 C 278.029 58.167,278.000 58.196,278.000 58.750 C 278.000 59.228,277.938 59.333,277.656 59.333 C 277.042 59.333,276.667 59.648,276.667 60.162 C 276.667 60.586,276.600 60.652,276.125 60.698 C 275.630 60.745,275.579 60.804,275.532 61.375 C 275.485 61.937,275.433 62.000,275.010 62.000 C 274.262 62.000,274.149 62.294,274.202 64.108 L 274.250 65.750 299.333 65.796 C 313.129 65.821,324.586 65.800,324.793 65.750 L 325.170 65.660 325.127 57.455 L 325.083 49.250 317.458 49.207 L 309.833 49.163 309.833 48.498 L 309.833 47.833 310.883 47.833 C 312.012 47.833,312.333 47.660,312.333 47.052 C 312.333 46.736,312.448 46.652,313.000 46.564 C 313.622 46.465,313.667 46.421,313.667 45.905 C 313.667 45.388,313.706 45.350,314.292 45.302 C 314.881 45.253,314.920 45.215,314.968 44.634 C 315.016 44.056,315.056 44.016,315.634 43.968 C 316.192 43.921,316.255 43.866,316.301 43.385 C 316.346 42.922,316.422 42.846,316.885 42.801 C 317.366 42.755,317.421 42.692,317.468 42.134 C 317.516 41.556,317.556 41.516,318.134 41.468 C 318.715 41.420,318.753 41.381,318.802 40.792 C 318.851 40.201,318.885 40.167,319.425 40.167 C 319.961 40.167,320.002 40.126,320.101 39.509 C 320.195 38.921,320.262 38.846,320.728 38.801 L 321.250 38.750 321.299 37.542 L 321.348 36.333 322.007 36.333 C 322.665 36.333,322.667 36.332,322.667 35.667 C 322.667 35.076,322.712 35.000,323.063 35.000 C 323.696 35.000,323.864 34.609,323.977 32.878 L 324.083 31.252 324.583 31.166 L 325.083 31.080 325.083 25.498 L 325.083 19.917 324.542 19.864 L 324.000 19.812 324.000 18.170 C 324.000 16.136,323.952 16.000,323.232 16.000 L 322.667 16.000 322.667 15.072 C 322.667 13.882,322.463 13.500,321.827 13.500 C 321.362 13.500,321.333 13.461,321.333 12.833 C 321.333 12.183,321.319 12.167,320.750 12.167 C 320.222 12.167,320.167 12.122,320.167 11.700 C 320.167 11.108,319.892 10.833,319.300 10.833 C 318.878 10.833,318.833 10.778,318.833 10.250 C 318.833 9.684,318.814 9.667,318.188 9.667 C 317.602 9.667,317.532 9.619,317.441 9.164 C 317.323 8.573,316.833 8.333,315.739 8.333 C 315.031 8.333,315.000 8.313,315.000 7.839 C 315.000 7.143,314.617 7.000,312.761 7.000 L 311.167 7.000 311.167 6.436 L 311.167 5.872 308.000 5.750 L 304.833 5.628 304.698 5.106 L 304.562 4.583 299.728 4.539 C 297.069 4.515,294.843 4.546,294.780 4.609 M367.951 4.616 C 367.785 4.660,367.610 4.908,367.556 5.180 C 367.466 5.630,367.400 5.668,366.688 5.687 C 366.264 5.698,365.129 5.755,364.167 5.812 L 362.417 5.917 362.364 6.458 L 362.312 7.000 360.728 7.000 C 358.890 7.000,358.500 7.145,358.500 7.829 C 358.500 8.268,358.442 8.318,357.875 8.365 C 357.307 8.412,357.245 8.465,357.198 8.950 C 357.144 9.513,357.137 9.516,355.333 9.706 C 355.026 9.738,354.876 9.889,354.761 10.279 C 354.638 10.697,354.490 10.829,354.059 10.910 C 353.599 10.997,353.496 11.102,353.406 11.580 C 353.315 12.068,353.225 12.155,352.775 12.199 C 352.300 12.245,352.245 12.309,352.198 12.875 C 352.150 13.462,352.113 13.500,351.591 13.500 C 350.925 13.500,350.833 13.682,350.833 15.004 L 350.833 15.980 350.208 16.032 C 349.616 16.081,349.581 16.116,349.531 16.716 C 349.490 17.210,349.389 17.384,349.070 17.505 C 348.566 17.697,348.333 18.272,348.333 19.323 C 348.333 20.845,348.199 21.167,347.563 21.167 L 347.000 21.167 347.000 23.073 L 347.000 24.979 346.465 25.031 C 345.687 25.107,345.700 24.931,345.703 35.583 C 345.706 46.404,345.691 46.184,346.458 46.409 L 347.000 46.569 347.000 48.607 C 347.000 50.885,347.136 51.444,347.726 51.592 C 348.172 51.704,348.333 52.193,348.333 53.430 C 348.333 54.123,348.357 54.156,348.917 54.261 C 349.499 54.370,349.500 54.373,349.500 55.280 C 349.500 56.452,349.706 56.833,350.339 56.833 C 350.790 56.833,350.833 56.883,350.833 57.399 C 350.833 57.972,351.044 58.167,351.661 58.167 C 351.985 58.167,352.161 58.606,352.164 59.426 C 352.167 60.069,352.464 60.461,353.000 60.530 C 353.335 60.573,353.433 60.698,353.500 61.167 L 353.583 61.750 354.792 61.898 L 356.000 62.046 356.000 62.606 C 356.000 63.136,356.032 63.167,356.583 63.167 C 357.062 63.167,357.167 63.229,357.167 63.511 C 357.167 64.322,357.437 64.500,358.673 64.500 L 359.833 64.500 359.833 65.063 C 359.833 65.741,360.125 65.833,362.260 65.833 L 363.646 65.833 363.698 66.375 L 363.750 66.917 372.583 66.964 C 382.542 67.018,382.470 67.023,382.610 66.325 C 382.705 65.851,382.742 65.833,383.646 65.831 C 385.105 65.828,385.333 65.724,385.333 65.064 L 385.333 64.500 386.625 64.480 C 388.608 64.450,388.907 64.352,388.969 63.708 C 389.018 63.198,389.059 63.167,389.677 63.167 C 390.311 63.167,390.333 63.148,390.333 62.605 C 390.333 62.078,390.375 62.036,391.000 61.936 C 391.630 61.835,391.667 61.797,391.667 61.248 C 391.667 60.681,391.683 60.667,392.333 60.667 L 393.000 60.667 393.000 60.000 C 393.000 59.349,393.014 59.333,393.583 59.333 C 394.136 59.333,394.167 59.303,394.167 58.767 C 394.167 58.249,394.221 58.187,394.792 58.053 C 395.377 57.915,395.420 57.862,395.467 57.219 C 395.509 56.650,395.588 56.514,395.923 56.430 C 396.170 56.368,396.369 56.166,396.432 55.914 C 396.489 55.686,396.603 55.500,396.685 55.500 C 396.766 55.500,396.833 55.200,396.833 54.833 C 396.833 54.286,396.891 54.167,397.155 54.167 C 397.826 54.167,398.000 53.739,398.000 52.086 L 398.000 50.529 398.667 50.417 L 399.333 50.304 399.333 48.069 C 399.333 45.944,399.350 45.833,399.667 45.833 C 399.996 45.833,400.000 45.722,400.000 36.000 C 400.000 26.322,399.995 26.167,399.671 26.167 C 399.361 26.167,399.340 26.029,399.296 23.708 L 399.250 21.250 398.625 21.198 L 398.000 21.147 398.000 19.823 C 398.000 18.648,397.966 18.500,397.692 18.500 C 397.171 18.500,396.857 17.971,396.802 16.998 L 396.750 16.083 396.147 16.033 L 395.545 15.983 395.452 14.957 C 395.356 13.900,395.088 13.500,394.478 13.500 C 394.262 13.500,394.173 13.339,394.135 12.875 C 394.088 12.305,394.036 12.245,393.544 12.198 C 393.096 12.155,392.981 12.056,392.868 11.620 C 392.714 11.027,392.372 10.876,391.125 10.850 C 390.337 10.833,390.333 10.831,390.333 10.258 C 390.333 9.733,390.282 9.672,389.759 9.574 C 389.265 9.481,389.178 9.393,389.134 8.942 C 389.088 8.466,389.024 8.412,388.458 8.365 C 387.943 8.322,387.833 8.249,387.831 7.948 C 387.825 7.189,387.616 7.096,385.759 7.027 L 384.000 6.962 384.000 6.417 L 384.000 5.872 380.833 5.750 C 377.938 5.639,377.667 5.602,377.667 5.328 C 377.667 4.476,377.799 4.499,372.857 4.519 C 370.323 4.530,368.116 4.574,367.951 4.616 M376.333 22.899 C 376.333 23.493,376.541 23.667,377.247 23.667 C 377.528 23.667,377.682 23.805,377.809 24.169 C 377.937 24.537,378.121 24.699,378.492 24.773 C 378.992 24.873,379.000 24.890,379.000 25.904 C 379.000 27.013,379.176 27.333,379.783 27.333 L 380.167 27.333 380.167 35.750 L 380.167 44.167 379.756 44.167 C 379.204 44.167,379.000 44.607,379.000 45.802 C 379.000 47.234,378.850 47.833,378.493 47.833 C 377.879 47.833,377.667 48.029,377.667 48.594 L 377.667 49.152 376.458 49.201 L 375.250 49.250 375.198 49.875 L 375.147 50.500 373.157 50.500 L 371.167 50.500 371.167 50.033 C 371.167 49.336,370.883 49.167,369.717 49.167 L 368.667 49.167 368.667 48.598 C 368.667 48.065,368.625 48.022,368.007 47.918 L 367.348 47.807 367.299 46.695 C 367.251 45.600,367.242 45.581,366.708 45.424 L 366.167 45.264 366.167 36.309 L 366.167 27.354 366.708 27.302 L 367.250 27.250 367.299 26.051 L 367.348 24.853 367.965 24.801 C 368.523 24.755,368.588 24.699,368.634 24.229 C 368.683 23.724,368.716 23.704,369.672 23.596 C 370.709 23.479,371.167 23.190,371.167 22.655 C 371.167 22.351,371.310 22.333,373.750 22.333 L 376.333 22.333 376.333 22.899 M330.714 49.274 C 330.602 49.320,330.462 49.615,330.403 49.929 C 330.306 50.446,330.243 50.500,329.731 50.500 C 329.286 50.500,329.167 50.567,329.167 50.820 C 329.167 51.354,328.980 51.667,328.662 51.667 C 328.043 51.667,327.833 51.861,327.833 52.434 C 327.833 52.950,327.790 53.000,327.339 53.000 C 326.510 53.000,326.471 53.251,326.530 58.267 C 326.587 63.179,326.583 63.158,327.448 63.164 C 327.749 63.166,327.822 63.276,327.865 63.792 C 327.914 64.383,327.951 64.419,328.542 64.468 C 329.128 64.517,329.167 64.554,329.167 65.075 C 329.167 65.578,329.222 65.640,329.756 65.740 C 330.239 65.831,330.363 65.939,330.444 66.344 C 330.577 67.010,330.636 67.018,335.161 66.964 L 339.071 66.917 339.221 66.392 C 339.365 65.890,339.418 65.863,340.477 65.750 C 341.630 65.627,341.827 65.500,341.831 64.875 C 341.833 64.571,341.927 64.500,342.327 64.500 C 342.963 64.500,343.167 64.118,343.167 62.928 C 343.167 62.124,343.210 62.000,343.486 62.000 C 344.347 62.000,344.333 62.065,344.333 58.066 L 344.333 54.333 343.750 54.333 L 343.167 54.333 343.167 53.173 C 343.167 51.941,342.988 51.667,342.188 51.667 C 341.933 51.667,341.842 51.538,341.802 51.125 L 341.750 50.583 340.551 50.535 L 339.353 50.486 339.301 49.868 L 339.250 49.250 335.083 49.220 C 332.792 49.204,330.825 49.228,330.714 49.274 " stroke="none" fill="#f42424" fill-rule="evenodd"></path><path id="path2" d="" stroke="none" fill="#f8c4100" fill-rule="evenodd"></path><path id="path3" d="" stroke="none" fill="#f8c4100" fill-rule="evenodd"></path><path id="path4" d="" stroke="none" fill="#f8c4100" fill-rule="evenodd"></path></g></svg>